<svg data-v-423bf9ae="" xmlns="http://www.w3.org/2000/svg" viewBox="0 0 55.54127037629148 60" class="icon"><!----><!----><!----><!----><g data-v-423bf9ae="" id="bf87b891-574e-4a05-9495-60c294418acf" transform="matrix(0.7185622833562109,0,0,0.7185622833562109,-6.721431247587681,-4.490992610595619)" stroke="none" fill="black"><path d="M48 6.25a38.477 38.477 0 0 0-20.361 5.798l-.544.338C15.99 19.535 9.354 31.691 9.354 44.897c0 16.039 9.654 30.171 24.596 36.003l1.394.544-1.27.792a39.883 39.883 0 0 1-17.029 5.817 38.53 38.53 0 0 0 11.362 1.697c7.445 0 14.67-2.12 20.895-6.129l.171-.11.204-.009c20.731-.871 36.972-17.828 36.972-38.604C86.647 23.587 69.311 6.25 48 6.25zM21.658 29.333l1.061-1.061 8.67 8.669-8.67 8.671-1.061-1.061 7.609-7.61-7.609-7.608zm.53 25.015h3.193v1.5h-3.193v-1.5zm9.848 7.078h-9.847v-1.5h9.847v1.5zm0-11.158h-9.847v-1.5h9.847v1.5zm3.227 5.58h-2.582v-1.5h2.582v1.5zM64.11 32.051h1.916v1.5H64.11v-1.5zm0 8.282h1.916v1.5H64.11v-1.5zm-16.754-8.282h10.883v1.5H47.356v-1.5zm14.6 4.14v1.5H51.075v-1.5h10.881zm-18.669 0h1.917v1.5h-1.917v-1.5zm9.541 12.577v1.5H38.164v-1.5h14.664zM35.5 32.051h7.309v1.5H35.5v-1.5zm0 4.14h2.371v1.5H35.5v-1.5zm0 4.142h7.309v1.5H35.5v-1.5zm10.163 21.093h-7.499v-1.5h7.499v1.5zm12.173-5.578H43.174v-1.5h14.662v1.5zm.403-14.015H47.356v-1.5h10.883v1.5zm5.081 19.593h-2.582v-1.5h2.582v1.5zm0-11.158h-2.582v-1.5h2.582v1.5zm10.493 11.158H70.62v-1.5h3.192v1.5zm0-5.578h-9.846v-1.5h9.846v1.5zm0-5.58H70.62v-1.5h3.192v1.5zm0-8.435h-2.369v-1.5h2.369v1.5zm0-4.142h-7.308v-1.5h7.308v1.5zm0-4.14h-2.369v-1.5h2.369v1.5z"></path></g><!----></svg>