<svg xmlns="http://www.w3.org/2000/svg" data-v-423bf9ae="" width="55.54127037629148" height="60"><rect id="backgroundrect" width="100%" height="100%" x="0" y="0" fill="none" stroke="none"/><!----><!----><!----><!----><!----><g class="currentLayer" style=""><title>Layer 1</title><g data-v-423bf9ae="" id="bf87b891-574e-4a05-9495-60c294418acf" stroke="none" fill="#990000" class="" fill-opacity="1"><path d="M27.76955835351044,0.000021660380698840243 a27.648120976696923,27.648120976696923 0 0 0 -14.63064665141581,4.1662241188993105 l-0.39089788214577875,0.24287405177439933 C4.768379663278131,9.54612159476796 3.509263146739272e-7,18.28096471124606 3.509263146739272e-7,27.770298225248176 c0,11.525020462750268 6.9370002835208595,21.679742651140238 17.673757921429363,25.87039788767366 l1.001675822998558,0.39089788214577875 l-0.9125740998623878,0.569101328418119 a28.65841954709576,28.65841954709576 0 0 1 -12.236397123272914,4.179876802283078 a27.686204777714806,27.686204777714806 0 0 0 8.164304663493269,1.2194001948554898 c5.34969619958699,0 10.541308696835614,-1.523352040715167 15.014358910728026,-4.404068234690216 l0.12287415045391206,-0.0790418511691832 l0.14658670580466704,-0.0064670605502059 c14.896514696257608,-0.6258677488032598 26.56668474024583,-12.810528387674527 26.56668474024583,-27.739378386683164 C55.53983491837793,12.457735966927327 43.08283917411465,0.000021660380698840243 27.76955835351044,0.000021660380698840243 zM8.841190685341134,16.586594847092112 l0.7623945826409397,-0.7623945826409397 l6.229934996698348,6.229216434414992 l-6.229934996698348,6.230653558981704 l-0.7623945826409397,-0.7623945826409397 l5.467540414057408,-5.468258976340765 l-5.467540414057408,-5.4668218517740526 zm0.38083801017879176,17.974835518155615 h2.2943693707563813 v1.0778434250343163 h-2.2943693707563813 v-1.0778434250343163 zm7.076401366491965,5.085983841595261 h-7.075682804208608 v-1.0778434250343163 h7.075682804208608 v1.0778434250343163 zm0,-8.0177179576886 h-7.075682804208608 v-1.0778434250343163 h7.075682804208608 v1.0778434250343163 zm2.3188004883904925,4.009577541127657 h-1.8553278156257362 v-1.0778434250343163 h1.8553278156257362 v1.0778434250343163 zM39.345596738378994,18.539647133254295 h1.3767653349105 v1.0778434250343163 H39.345596738378994 v-1.0778434250343163 zm0,5.951132830756138 h1.3767653349105 v1.0778434250343163 H39.345596738378994 v-1.0778434250343163 zm-12.038792495349957,-5.951132830756138 h7.820113329765643 v1.0778434250343163 H27.306804243029042 v-1.0778434250343163 zm10.491009337000678,2.9748478530947127 v1.0778434250343163 H29.979137374830792 v-1.0778434250343163 h7.818676205198931 zm-13.4148392679771,0 h1.3774838971938563 v1.0778434250343163 h-1.3774838971938563 v-1.0778434250343163 zm6.855802745501608,9.037357837771063 v1.0778434250343163 H20.70177973441875 v-1.0778434250343163 h10.536997323135475 zM18.787529811557803,18.539647133254295 h5.251971729050545 v1.0778434250343163 H18.787529811557803 v-1.0778434250343163 zm0,2.9748478530947127 h1.7037111738375759 v1.0778434250343163 H18.787529811557803 v-1.0778434250343163 zm0,2.9762849776614257 h5.251971729050545 v1.0778434250343163 H18.787529811557803 v-1.0778434250343163 zm7.302748485749171,15.156634242832556 h-5.388498562888225 v-1.0778434250343163 h5.388498562888225 v1.0778434250343163 zm8.747058675295154,-4.008140416560944 H24.301776774033367 v-1.0778434250343163 h10.535560198568763 v1.0778434250343163 zm0.289580600192553,-10.070650401237296 H27.306804243029042 v-1.0778434250343163 h7.820113329765643 v1.0778434250343163 zm3.6510149617329075,14.07879081779824 h-1.8553278156257362 v-1.0778434250343163 h1.8553278156257362 v1.0778434250343163 zm0,-8.0177179576886 h-1.8553278156257362 v-1.0778434250343163 h1.8553278156257362 v1.0778434250343163 zm7.539874039256721,8.0177179576886 H44.02343720302793 v-1.0778434250343163 h2.2936508084730254 v1.0778434250343163 zm0,-4.008140416560944 h-7.074964241925252 v-1.0778434250343163 h7.074964241925252 v1.0778434250343163 zm0,-4.009577541127657 H44.02343720302793 v-1.0778434250343163 h2.2936508084730254 v1.0778434250343163 zm0,-6.061072860109639 h-1.7022740492708637 v-1.0778434250343163 h1.7022740492708637 v1.0778434250343163 zm0,-2.9762849776614257 h-5.251253166767189 v-1.0778434250343163 h5.251253166767189 v1.0778434250343163 zm0,-2.9748478530947127 h-1.7022740492708637 v-1.0778434250343163 h1.7022740492708637 v1.0778434250343163 z" stroke-width="0" id="svg_1" fill="#990000" fill-opacity="1"/></g></g></svg>