<svg xmlns="http://www.w3.org/2000/svg" xmlns:xlink="http://www.w3.org/1999/xlink" data-v-423bf9ae="" width="149" height="62"><rect id="backgroundrect" width="100%" height="100%" x="0" y="0" fill="none" stroke="none" class="" style=""/><!----><!----><!----><!----><!----><g class="currentLayer" style=""><title>Layer 1</title><rect id="svgEditorBackground" x="0" y="5.769183104575859e-7" width="148.91729736328125" height="61.86812827220329" style="fill:none;stroke:none;" class=""/><g data-v-423bf9ae="" id="845e254c-d82b-44f5-840e-f19c186645de" fill="black" class=""><path d="M72.186646371188,20.527640123989087 L72.186646371188,20.527640123989087 L72.186646371188,20.527640123989087 Q72.186646371188,21.946482750258056 71.6575864088504,23.245084475995753 L71.6575864088504,23.245084475995753 L71.6575864088504,23.245084475995753 Q71.10447826640657,24.543686201733436 70.21469560247519,25.673950666727364 L70.21469560247519,25.673950666727364 L70.21469560247519,25.673950666727364 Q69.30086475843756,26.804215131721293 68.09845575312487,27.718045975758912 L68.09845575312487,27.718045975758912 L68.09845575312487,27.718045975758912 Q66.89604674781219,28.655924999902822 65.54934866186198,29.305225862771664 L65.54934866186198,29.305225862771664 L65.54934866186198,29.305225862771664 Q64.20265057591178,29.954526725640505 62.807856129749055,30.315249427234335 L62.807856129749055,30.315249427234335 L62.807856129749055,30.315249427234335 Q61.3890135034801,30.70002030893437 60.0904117777424,30.70002030893437 L60.0904117777424,30.70002030893437 L60.0904117777424,30.70002030893437 Q59.97017087721113,30.70002030893437 59.82588179657362,30.70002030893437 L59.82588179657362,30.70002030893437 L59.82588179657362,30.70002030893437 Q59.68159271593609,30.70002030893437 59.561351815404834,30.651923948721873 L59.561351815404834,30.651923948721873 L59.7296890761486,29.762141284790488 L59.7296890761486,29.762141284790488 Q60.811857180930005,29.56975584394047 61.89402528571143,29.20903314234664 L61.89402528571143,29.20903314234664 L61.89402528571143,29.20903314234664 Q63.0002415705991,28.824262260646606 63.986216954955495,28.27115411820276 L63.986216954955495,28.27115411820276 L63.986216954955495,28.27115411820276 Q64.99624051941815,27.718045975758912 65.86197500324329,26.99660057257131 L65.86197500324329,26.99660057257131 L65.86197500324329,26.99660057257131 Q66.75175766717466,26.27515516938371 67.37701034993727,25.36132432534606 L67.37701034993727,25.36132432534606 L67.37701034993727,25.36132432534606 Q68.0263112128061,24.471541661414676 68.38703391439991,23.413421736739537 L68.38703391439991,23.413421736739537 L68.38703391439991,23.413421736739537 Q68.77180479609997,22.35530181206437 68.77180479609997,21.12884462664543 L68.77180479609997,21.12884462664543 L68.77180479609997,21.12884462664543 Q68.77180479609997,19.974531981545255 68.38703391439991,18.988556597188847 L68.38703391439991,18.988556597188847 L68.38703391439991,18.988556597188847 Q68.00226303269986,18.002581212832453 67.32891398972475,17.281135809644837 L67.32891398972475,17.281135809644837 L67.32891398972475,17.281135809644837 Q66.65556494674965,16.559690406457236 65.6936377424995,16.150871344650923 L65.6936377424995,16.150871344650923 L65.6936377424995,16.150871344650923 Q64.73171053824936,15.742052282844611 63.577397893149175,15.742052282844611 L63.577397893149175,15.742052282844611 L63.577397893149175,15.742052282844611 Q62.350940707730246,15.742052282844611 61.0763871620988,16.03063044411965 L61.0763871620988,16.03063044411965 L61.0763871620988,16.03063044411965 Q59.80183361646735,16.295160425288444 58.55132825094217,16.824220387626013 L58.55132825094217,16.824220387626013 L58.55132825094217,16.824220387626013 Q57.30082288541698,17.32923216985735 56.1465102403168,18.050677573044965 L56.1465102403168,18.050677573044965 L56.1465102403168,18.050677573044965 Q54.992197595216616,18.79617115633883 54.03027039096648,19.66190564016395 L54.03027039096648,19.66190564016395 L53.501210428628895,19.108797497720133 L53.501210428628895,19.108797497720133 Q54.63147489362282,18.002581212832453 56.07436569999804,17.01660582847606 L56.07436569999804,17.01660582847606 L56.07436569999804,17.01660582847606 Q57.493208326266995,16.03063044411965 59.08038821327975,15.30918504093205 L59.08038821327975,15.30918504093205 L59.08038821327975,15.30918504093205 Q60.667568100292485,14.587739637744434 62.278796167411485,14.154872395831859 L62.278796167411485,14.154872395831859 L62.278796167411485,14.154872395831859 Q63.89002423453048,13.722005153919298 65.40505958122446,13.722005153919298 L65.40505958122446,13.722005153919298 L65.40505958122446,13.722005153919298 Q66.82390220749342,13.722005153919298 68.07440757301862,14.227016936150633 L68.07440757301862,14.227016936150633 L68.07440757301862,14.227016936150633 Q69.30086475843756,14.732028718381954 70.21469560247519,15.62181138231334 L70.21469560247519,15.62181138231334 L70.21469560247519,15.62181138231334 Q71.12852644651282,16.535642226350987 71.6575864088504,17.786147591876173 L71.6575864088504,17.786147591876173 L71.6575864088504,17.786147591876173 Q72.186646371188,19.03665295740136 72.186646371188,20.527640123989087 zM58.815858232110955,18.483544814957526 L58.815858232110955,36.85635441613533 L55.425064837129185,38.10685978166052 L55.425064837129185,19.66190564016395 L58.815858232110955,18.483544814957526 zM84.25883278452733,35.12488544848506 L84.71574820654614,35.62989723071638 L84.71574820654614,35.62989723071638 Q84.5233627656961,36.06276447262894 84.2107364243148,36.447535354329005 L84.2107364243148,36.447535354329005 L84.2107364243148,36.447535354329005 Q83.92215826303976,36.808258055922806 83.5373873813397,37.12088439730411 L83.5373873813397,37.12088439730411 L83.5373873813397,37.12088439730411 Q83.15261649963966,37.40946255857915 82.69570107762084,37.577799819322934 L82.69570107762084,37.577799819322934 L82.69570107762084,37.577799819322934 Q82.23878565560202,37.74613708006672 81.75782205347694,37.74613708006672 L81.75782205347694,37.74613708006672 L81.75782205347694,37.74613708006672 Q80.45922032773925,37.74613708006672 79.88206400518916,37.04873985698535 L79.88206400518916,37.04873985698535 L79.88206400518916,37.04873985698535 Q79.32895586274532,36.32729445379772 79.32895586274532,35.1008372683788 L79.32895586274532,35.1008372683788 L79.32895586274532,34.78821092699752 L79.32895586274532,34.78821092699752 Q79.01632952136403,35.3653672495476 78.65560681977023,35.91847539199142 L78.65560681977023,35.91847539199142 L78.65560681977023,35.91847539199142 Q78.27083593807015,36.47158353443527 77.81392051605135,36.928498956454064 L77.81392051605135,36.928498956454064 L77.81392051605135,36.928498956454064 Q77.35700509403252,37.361366198366625 76.77984877148243,37.649944359641694 L76.77984877148243,37.649944359641694 L76.77984877148243,37.649944359641694 Q76.20269244893234,37.9144743408105 75.48124704574474,37.9144743408105 L75.48124704574474,37.9144743408105 L75.48124704574474,37.9144743408105 Q74.42312712106958,37.9144743408105 73.60548899745694,37.50565527900417 L73.60548899745694,37.50565527900417 L73.60548899745694,37.50565527900417 Q72.76380269373807,37.09683621719785 72.21069455129424,36.39943899411651 L72.21069455129424,36.39943899411651 L72.21069455129424,36.39943899411651 Q71.6575864088504,35.70204177103514 71.36900824757537,34.76416274689126 L71.36900824757537,34.76416274689126 L71.36900824757537,34.76416274689126 Q71.10447826640657,33.82628372274735 71.10447826640657,32.76816379807221 L71.10447826640657,32.76816379807221 L71.10447826640657,32.76816379807221 Q71.10447826640657,31.34932117180324 71.6094900486379,29.93047854553427 L71.6094900486379,29.93047854553427 L71.6094900486379,29.93047854553427 Q72.09045365076297,28.511635919265302 73.00428449480061,27.381371454271374 L73.00428449480061,27.381371454271374 L73.00428449480061,27.381371454271374 Q73.91811533883825,26.27515516938371 75.1926688844697,25.57775794630237 L75.1926688844697,25.57775794630237 L75.1926688844697,25.57775794630237 Q76.46722243010113,24.880360723221003 78.03035413700762,24.880360723221003 L78.03035413700762,24.880360723221003 L78.03035413700762,24.880360723221003 Q78.65560681977023,24.880360723221003 79.28085950253282,24.976553443646026 L79.28085950253282,24.976553443646026 L79.28085950253282,24.976553443646026 Q79.9061121852954,25.096794344177283 80.48326850784551,25.36132432534606 L80.48326850784551,25.36132432534606 L80.48326850784551,25.36132432534606 Q81.03637665028933,25.601806126408604 81.51734025241441,26.01062518821493 L81.51734025241441,26.01062518821493 L81.51734025241441,26.01062518821493 Q81.97425567443321,26.41944425002123 82.28688201581451,27.020648752677573 L82.28688201581451,27.020648752677573 L79.83396764497664,28.05472049724648 L79.83396764497664,28.05472049724648 Q79.64158220412662,27.742094155865175 79.37705222295783,27.453515994590134 L79.37705222295783,27.453515994590134 L79.37705222295783,27.453515994590134 Q79.11252224178904,27.164937833315093 78.823944080514,26.948504212358813 L78.823944080514,26.948504212358813 L78.823944080514,26.948504212358813 Q78.51131773913269,26.732070591402533 78.17464321764515,26.611829690871275 L78.17464321764515,26.611829690871275 L78.17464321764515,26.611829690871275 Q77.81392051605135,26.49158879033999 77.45319781445755,26.49158879033999 L77.45319781445755,26.49158879033999 L77.45319781445755,26.49158879033999 Q76.5874633306324,26.49158879033999 75.9141142876573,26.99660057257131 L75.9141142876573,26.99660057257131 L75.9141142876573,26.99660057257131 Q75.26481342478846,27.525660534908894 74.7838498226634,28.29520229830902 L74.7838498226634,28.29520229830902 L74.7838498226634,28.29520229830902 Q74.32693440064456,29.088792241815383 74.06240441947577,29.954526725640505 L74.06240441947577,29.954526725640505 L74.06240441947577,29.954526725640505 Q73.82192261841325,30.820261209465656 73.82192261841325,31.517658432546995 L73.82192261841325,31.517658432546995 L73.82192261841325,31.517658432546995 Q73.82192261841325,32.1429111153096 73.94216351894451,32.93650105881596 L73.94216351894451,32.93650105881596 L73.94216351894451,32.93650105881596 Q74.06240441947577,33.70604282221609 74.37503076085707,34.40344004529746 L74.37503076085707,34.40344004529746 L74.37503076085707,34.40344004529746 Q74.68765710223836,35.1008372683788 75.21671706457596,35.58180087050388 L75.21671706457596,35.58180087050388 L75.21671706457596,35.58180087050388 Q75.72172884680727,36.03871629252268 76.49127061020738,36.03871629252268 L76.49127061020738,36.03871629252268 L76.49127061020738,36.03871629252268 Q77.09247511286372,36.03871629252268 77.54939053488255,35.7741863113539 L77.54939053488255,35.7741863113539 L77.54939053488255,35.7741863113539 Q77.98225777679512,35.50965633018512 78.29488411817641,35.07678908827256 L78.29488411817641,35.07678908827256 L78.29488411817641,35.07678908827256 Q78.60751045955772,34.64392184636 78.823944080514,34.06676552380989 L78.823944080514,34.06676552380989 L78.823944080514,34.06676552380989 Q79.01632952136403,33.48960920125981 79.13657042189529,32.91245287870973 L79.13657042189529,32.91245287870973 L79.13657042189529,32.91245287870973 Q79.2327631423203,32.311248376053385 79.28085950253282,31.734092053503304 L79.28085950253282,31.734092053503304 L79.28085950253282,31.734092053503304 Q79.32895586274532,31.156935730953194 79.32895586274532,30.70002030893437 L79.32895586274532,30.70002030893437 L79.32895586274532,29.545707663834207 L82.31093019592078,28.511635919265302 L82.31093019592078,35.17298180869756 L82.31093019592078,35.17298180869756 Q82.31093019592078,35.50965633018512 82.47926745666454,35.7741863113539 L82.47926745666454,35.7741863113539 L82.47926745666454,35.7741863113539 Q82.64760471740833,36.03871629252268 82.98427923889588,36.03871629252268 L82.98427923889588,36.03871629252268 L82.98427923889588,36.03871629252268 Q83.39309830070219,36.03871629252268 83.72977282218974,35.75013813124764 L83.72977282218974,35.75013813124764 L83.72977282218974,35.75013813124764 Q84.0664473436773,35.43751178986636 84.25883278452733,35.12488544848506 L84.25883278452733,35.12488544848506 zM92.81998490235364,37.89042616070424 L92.81998490235364,37.89042616070424 L92.81998490235364,37.89042616070424 Q92.24282857980353,37.89042616070424 91.71376861746596,37.722088899960454 L91.71376861746596,37.722088899960454 L91.71376861746596,37.722088899960454 Q91.18470865512839,37.577799819322934 90.72779323310957,37.21707711772913 L90.72779323310957,37.21707711772913 L92.002346778741,35.3653672495476 L92.002346778741,35.3653672495476 Q92.3149731201223,35.798234491460164 92.74784036203486,36.03871629252268 L92.74784036203486,36.03871629252268 L92.74784036203486,36.03871629252268 Q93.15665942384118,36.27919809358525 93.6616712060725,36.27919809358525 L93.6616712060725,36.27919809358525 L93.6616712060725,36.27919809358525 Q94.19073116841008,36.27919809358525 94.57550205011015,36.014668112416445 L94.57550205011015,36.014668112416445 L94.57550205011015,36.014668112416445 Q94.96027293181021,35.726089951141375 95.20075473287272,35.293222709228814 L95.20075473287272,35.293222709228814 L95.20075473287272,35.293222709228814 Q95.46528471404152,34.83630728721002 95.63362197478531,34.307247324872435 L95.63362197478531,34.307247324872435 L95.63362197478531,34.307247324872435 Q95.80195923552907,33.75413918242859 95.87410377584783,33.17698285987851 L95.87410377584783,33.17698285987851 L95.87410377584783,33.17698285987851 Q95.94624831616659,32.62387471743466 95.99434467637909,32.11886293520334 L95.99434467637909,32.11886293520334 L95.99434467637909,32.11886293520334 Q96.01839285648536,31.589802972865755 96.01839285648536,31.229080271271982 L96.01839285648536,31.229080271271982 L96.01839285648536,31.229080271271982 Q96.01839285648536,30.531683048190615 95.82600741563533,29.738093104684253 L95.82600741563533,29.738093104684253 L95.82600741563533,29.738093104684253 Q95.63362197478531,28.9204549810716 95.24885109308525,28.22305775799026 L95.24885109308525,28.22305775799026 L95.24885109308525,28.22305775799026 Q94.86408021138519,27.525660534908894 94.26287570872884,27.044696932783836 L94.26287570872884,27.044696932783836 L94.26287570872884,27.044696932783836 Q93.6616712060725,26.587781510765012 92.81998490235364,26.587781510765012 L92.81998490235364,26.587781510765012 L92.81998490235364,26.587781510765012 Q92.24282857980353,26.587781510765012 91.83400951799723,26.876359672040053 L91.83400951799723,26.876359672040053 L91.83400951799723,26.876359672040053 Q91.42519045619093,27.164937833315093 91.16066047502213,27.621853255333917 L91.16066047502213,27.621853255333917 L91.16066047502213,27.621853255333917 Q90.89613049385332,28.07876867735274 90.72779323310957,28.679973180009085 L90.72779323310957,28.679973180009085 L90.72779323310957,28.679973180009085 Q90.58350415247202,29.28117768266543 90.51135961215329,29.882382185321745 L90.51135961215329,29.882382185321745 L90.51135961215329,29.882382185321745 Q90.43921507183451,30.48358668797809 90.41516689172826,31.0607430105282 L90.41516689172826,31.0607430105282 L90.41516689172826,31.0607430105282 Q90.391118711622,31.613851152972018 90.391118711622,32.04671839488458 L90.391118711622,32.04671839488458 L90.391118711622,44.67201295066775 L87.40914437844656,45.706084695236655 L87.40914437844656,27.261130553740117 L87.40914437844656,27.261130553740117 Q87.40914437844656,26.92445603225258 87.24080711770279,26.659926051083772 L87.24080711770279,26.659926051083772 L87.24080711770279,26.659926051083772 Q87.072469856959,26.371347889808703 86.73579533547145,26.371347889808703 L86.73579533547145,26.371347889808703 L86.73579533547145,26.371347889808703 Q86.32697627366514,26.371347889808703 85.99030175217759,26.683974231190007 L85.99030175217759,26.683974231190007 L85.99030175217759,26.683974231190007 Q85.65362723069003,26.99660057257131 85.46124178984002,27.28517873384635 L85.46124178984002,27.28517873384635 L85.00432636782119,26.78016695161503 L85.00432636782119,26.78016695161503 Q85.19671180867121,26.371347889808703 85.50933815005251,25.986577008108668 L85.50933815005251,25.986577008108668 L85.50933815005251,25.986577008108668 Q85.82196449143382,25.601806126408604 86.20673537313388,25.313227965133564 L86.20673537313388,25.313227965133564 L86.20673537313388,25.313227965133564 Q86.59150625483392,25.024649803858523 87.04842167685274,24.832264363008505 L87.04842167685274,24.832264363008505 L87.04842167685274,24.832264363008505 Q87.4812889187653,24.663927102264722 87.98630070099664,24.663927102264722 L87.98630070099664,24.663927102264722 L87.98630070099664,24.663927102264722 Q88.68369792407799,24.663927102264722 89.14061334609681,24.880360723221003 L89.14061334609681,24.880360723221003 L89.14061334609681,24.880360723221003 Q89.59752876811564,25.07274616407102 89.88610692939068,25.457517045771084 L89.88610692939068,25.457517045771084 L89.88610692939068,25.457517045771084 Q90.17468509066572,25.842287927471148 90.29492599119698,26.371347889808703 L90.29492599119698,26.371347889808703 L90.29492599119698,26.371347889808703 Q90.391118711622,26.900407852146316 90.391118711622,27.525660534908894 L90.391118711622,27.525660534908894 L90.391118711622,27.525660534908894 Q90.65564869279078,27.020648752677573 91.0163713943846,26.515636970446252 L91.0163713943846,26.515636970446252 L91.0163713943846,26.515636970446252 Q91.3770940959784,25.986577008108668 91.80996133789097,25.57775794630237 L91.80996133789097,25.57775794630237 L91.80996133789097,25.57775794630237 Q92.26687675990979,25.192987064602278 92.79593672224738,24.9284570834335 L92.79593672224738,24.9284570834335 L92.79593672224738,24.9284570834335 Q93.32499668458493,24.663927102264722 93.9742975474538,24.663927102264722 L93.9742975474538,24.663927102264722 L93.9742975474538,24.663927102264722 Q95.10456201244772,24.663927102264722 95.97029649627287,25.168938884496043 L95.97029649627287,25.168938884496043 L95.97029649627287,25.168938884496043 Q96.86007916020424,25.673950666727364 97.46128366286057,26.49158879033999 L97.46128366286057,26.49158879033999 L97.46128366286057,26.49158879033999 Q98.06248816551691,27.309226913952614 98.37511450689823,28.319250478415256 L98.37511450689823,28.319250478415256 L98.37511450689823,28.319250478415256 Q98.68774084827952,29.329274042877927 98.68774084827952,30.387393967553066 L98.68774084827952,30.387393967553066 L98.68774084827952,30.387393967553066 Q98.68774084827952,31.685995693290778 98.30296996657947,33.03269377924099 L98.30296996657947,33.03269377924099 L98.30296996657947,33.03269377924099 Q97.94224726498564,34.35534368508493 97.22080186179804,35.43751178986636 L97.22080186179804,35.43751178986636 L97.22080186179804,35.43751178986636 Q96.47530827850417,36.519679894647766 95.36909199361652,37.21707711772913 L95.36909199361652,37.21707711772913 L95.36909199361652,37.21707711772913 Q94.2869238888351,37.89042616070424 92.81998490235364,37.89042616070424 zM112.32305896852534,24.44749348130844 L112.32305896852534,36.25514991347899 L112.32305896852534,36.25514991347899 Q112.32305896852534,37.43351073868541 112.01043262714404,38.56377520367931 L112.01043262714404,38.56377520367931 L112.01043262714404,38.56377520367931 Q111.721854465869,39.66999148856701 111.19279450353143,40.68001505302965 L111.19279450353143,40.68001505302965 L111.19279450353143,40.68001505302965 Q110.68778272130008,41.66599043738606 109.96633731811248,42.507676741104916 L109.96633731811248,42.507676741104916 L109.96633731811248,42.507676741104916 Q109.26894009503113,43.32531486471754 108.4513019714185,43.926519367373885 L108.4513019714185,43.926519367373885 L108.4513019714185,43.926519367373885 Q107.60961566769963,44.52772387003023 106.69578482366198,44.864398391517796 L106.69578482366198,44.864398391517796 L106.69578482366198,44.864398391517796 Q105.75790579951808,45.20107291300533 104.84407495548045,45.20107291300533 L104.84407495548045,45.20107291300533 L104.84407495548045,45.20107291300533 Q104.12262955229284,45.20107291300533 103.49737686953024,44.96059111194279 L103.49737686953024,44.96059111194279 L103.49737686953024,44.96059111194279 Q102.87212418676764,44.720109310880275 102.31901604432382,44.33533842918021 L102.31901604432382,44.33533842918021 L104.14667773239908,42.002664958873595 L104.14667773239908,42.002664958873595 Q104.41120771356788,42.19505039972364 104.69978587484293,42.41148402067992 L104.69978587484293,42.41148402067992 L104.69978587484293,42.41148402067992 Q105.01241221622422,42.6279176416362 105.34908673771177,42.796254902379985 L105.34908673771177,42.796254902379985 L105.34908673771177,42.796254902379985 Q105.66171307909308,42.96459216312374 106.02243578068688,43.084833063655026 L106.02243578068688,43.084833063655026 L106.02243578068688,43.084833063655026 Q106.38315848228069,43.18102578408002 106.71983300376824,43.18102578408002 L106.71983300376824,43.18102578408002 L106.71983300376824,43.18102578408002 Q107.34508568653084,43.18102578408002 107.7779529284434,42.796254902379985 L107.7779529284434,42.796254902379985 L107.7779529284434,42.796254902379985 Q108.21082017035597,42.435532200786156 108.499398331631,41.83432769812981 L108.499398331631,41.83432769812981 L108.499398331631,41.83432769812981 Q108.78797649290605,41.233123195473496 108.93226557354357,40.48762961217963 L108.93226557354357,40.48762961217963 L108.93226557354357,40.48762961217963 Q109.10060283428734,39.74213602888577 109.1727473746061,38.9966424455919 L109.1727473746061,38.9966424455919 L109.1727473746061,38.9966424455919 Q109.24489191492488,38.27519704240427 109.26894009503113,37.6018479994292 L109.26894009503113,37.6018479994292 L109.26894009503113,37.6018479994292 Q109.29298827513738,36.928498956454064 109.29298827513738,36.4956317145415 L109.29298827513738,36.4956317145415 L109.29298827513738,29.882382185321745 L109.29298827513738,29.882382185321745 Q109.14869919449986,30.459538507871855 108.93226557354357,31.27717663148448 L108.93226557354357,31.27717663148448 L108.93226557354357,31.27717663148448 Q108.73988013269354,32.094814755097104 108.40320561120599,32.98459741902849 L108.40320561120599,32.98459741902849 L108.40320561120599,32.98459741902849 Q108.09057926982469,33.874380082959874 107.68176020801837,34.76416274689126 L107.68176020801837,34.76416274689126 L107.68176020801837,34.76416274689126 Q107.27294114621208,35.62989723071638 106.74388118387449,36.35134263390398 L106.74388118387449,36.35134263390398 L106.74388118387449,36.35134263390398 Q106.23886940164317,37.04873985698535 105.58956853877433,37.48160709889791 L105.58956853877433,37.48160709889791 L105.58956853877433,37.48160709889791 Q104.96431585601172,37.9144743408105 104.21882227271784,37.9144743408105 L104.21882227271784,37.9144743408105 L104.21882227271784,37.9144743408105 Q103.47332868942398,37.9144743408105 103.08855780772393,37.577799819322934 L103.08855780772393,37.577799819322934 L103.08855780772393,37.577799819322934 Q102.70378692602388,37.24112529783537 102.51140148517386,36.736113515604046 L102.51140148517386,36.736113515604046 L102.51140148517386,36.736113515604046 Q102.34306422443007,36.20705355326646 102.34306422443007,35.58180087050388 L102.34306422443007,35.58180087050388 L102.34306422443007,35.58180087050388 Q102.31901604432382,34.95654818774128 102.31901604432382,34.379391865191195 L102.31901604432382,34.379391865191195 L102.31901604432382,27.28517873384635 L102.31901604432382,27.28517873384635 Q102.31901604432382,26.99660057257131 102.15067878358003,26.70802241129627 L102.15067878358003,26.70802241129627 L102.15067878358003,26.70802241129627 Q101.98234152283628,26.41944425002123 101.64566700134873,26.41944425002123 L101.64566700134873,26.41944425002123 L101.64566700134873,26.41944425002123 Q101.23684793954241,26.41944425002123 100.90017341805486,26.70802241129627 L100.90017341805486,26.70802241129627 L100.90017341805486,26.70802241129627 Q100.5634988965673,27.020648752677573 100.37111345571728,27.309226913952614 L100.37111345571728,27.309226913952614 L99.91419803369845,26.828263311827556 L99.91419803369845,26.828263311827556 Q100.1065834745485,26.41944425002123 100.41920981592978,26.034673368321165 L100.41920981592978,26.034673368321165 L100.41920981592978,26.034673368321165 Q100.73183615731108,25.6499024866211 101.11660703901113,25.337276145239827 L101.11660703901113,25.337276145239827 L101.11660703901113,25.337276145239827 Q101.50137792071119,25.048697983964757 101.95829334273002,24.880360723221003 L101.95829334273002,24.880360723221003 L101.95829334273002,24.880360723221003 Q102.39116058464258,24.71202346247722 102.89617236687391,24.71202346247722 L102.89617236687391,24.71202346247722 L102.89617236687391,24.71202346247722 Q104.17072591250535,24.71202346247722 104.74788223505543,25.409420685558587 L104.74788223505543,25.409420685558587 L104.74788223505543,25.409420685558587 Q105.30099037749928,26.13086608874619 105.30099037749928,27.35732327416514 L105.30099037749928,27.35732327416514 L105.30099037749928,34.11486188402239 L105.30099037749928,34.11486188402239 Q105.30099037749928,34.21105460444744 105.32503855760552,34.379391865191195 L105.32503855760552,34.379391865191195 L105.32503855760552,34.379391865191195 Q105.32503855760552,34.523680945828715 105.37313491781804,34.667970026466236 L105.37313491781804,34.667970026466236 L105.37313491781804,34.667970026466236 Q105.42123127803053,34.812259107103756 105.51742399845557,34.93250000763504 L105.51742399845557,34.93250000763504 L105.51742399845557,34.93250000763504 Q105.61361671888056,35.02869272806004 105.78195397962435,35.02869272806004 L105.78195397962435,35.02869272806004 L105.78195397962435,35.02869272806004 Q106.09458032100564,35.02869272806004 106.43125484249319,34.667970026466236 L106.43125484249319,34.667970026466236 L106.43125484249319,34.667970026466236 Q106.74388118387449,34.307247324872435 107.0565075252558,33.82628372274735 L107.0565075252558,33.82628372274735 L107.0565075252558,33.82628372274735 Q107.34508568653084,33.34532012062229 107.56151930748712,32.8643565184972 L107.56151930748712,32.8643565184972 L107.56151930748712,32.8643565184972 Q107.7779529284434,32.40744109647841 107.87414564886842,32.166959295415865 L107.87414564886842,32.166959295415865 L107.87414564886842,32.166959295415865 Q108.16272381014345,31.469562072334497 108.40320561120599,30.627875768615638 L108.40320561120599,30.627875768615638 L108.40320561120599,30.627875768615638 Q108.61963923216227,29.78618946489675 108.8120246730123,28.896406800965366 L108.8120246730123,28.896406800965366 L108.8120246730123,28.896406800965366 Q108.98036193375609,28.030672317140215 109.10060283428734,27.164937833315093 L109.10060283428734,27.164937833315093 L109.10060283428734,27.164937833315093 Q109.2208437348186,26.29920334948997 109.29298827513738,25.50561340598358 L109.29298827513738,25.50561340598358 L112.32305896852534,24.44749348130844 zM124.5395344625022,35.3653672495476 L124.94835352430852,35.798234491460164 L124.94835352430852,35.798234491460164 Q124.6357271829272,36.25514991347899 124.20285994101465,36.63992079517902 L124.20285994101465,36.63992079517902 L124.20285994101465,36.63992079517902 Q123.79404087920834,37.00064349677285 123.26498091687075,37.26517347794163 L123.26498091687075,37.26517347794163 L123.26498091687075,37.26517347794163 Q122.75996913463942,37.52970345911041 122.2068609921956,37.67399253974793 L122.2068609921956,37.67399253974793 L122.2068609921956,37.67399253974793 Q121.65375284975175,37.81828162038548 121.10064470730792,37.81828162038548 L121.10064470730792,37.81828162038548 L121.10064470730792,37.81828162038548 Q120.37919930412032,37.81828162038548 119.874187521889,37.55375163921667 L119.874187521889,37.55375163921667 L119.874187521889,37.55375163921667 Q119.34512755955143,37.28922165804789 119.00845303806388,36.83230623602907 L119.00845303806388,36.83230623602907 L119.00845303806388,36.83230623602907 Q118.69582669668254,36.39943899411651 118.52748943593879,35.798234491460164 L118.52748943593879,35.798234491460164 L118.52748943593879,35.798234491460164 Q118.38320035530127,35.19702998880382 118.38320035530127,34.57177730604121 L118.38320035530127,34.57177730604121 L118.38320035530127,34.57177730604121 Q118.38320035530127,33.730091002322354 118.62368215636378,32.76816379807221 L118.62368215636378,32.76816379807221 L118.62368215636378,32.76816379807221 Q118.88821213753258,31.806236593822064 119.32107937944515,30.868357569678153 L119.32107937944515,30.868357569678153 L119.32107937944515,30.868357569678153 Q119.75394662135771,29.93047854553427 120.30705476380155,29.13688860202791 L120.30705476380155,29.13688860202791 L120.30705476380155,29.13688860202791 Q120.88421108635166,28.319250478415256 121.50946376911423,27.7901905160777 L121.50946376911423,27.7901905160777 L121.50946376911423,27.7901905160777 Q120.93230744656415,28.174961397777736 120.23491022348279,28.391395018734045 L120.23491022348279,28.391395018734045 L120.23491022348279,28.391395018734045 Q119.56156118050768,28.607828639690325 118.86416395742634,28.607828639690325 L118.86416395742634,28.607828639690325 L118.86416395742634,28.607828639690325 Q118.33510399508877,28.607828639690325 117.97438129349494,28.511635919265302 L117.97438129349494,28.511635919265302 L117.97438129349494,28.511635919265302 Q117.5896104117949,28.439491378946542 117.13269498977608,28.199009577884 L117.13269498977608,28.199009577884 L115.42527420223206,31.7821884137158 L114.70382879904446,31.49361025244076 L116.48339412690721,27.86233505639646 L116.48339412690721,27.86233505639646 Q116.21886414573842,27.669949615546415 115.88218962425087,27.35732327416514 L115.88218962425087,27.35732327416514 L115.88218962425087,27.35732327416514 Q115.56956328286958,27.044696932783836 115.42527420223206,26.756118771508795 L115.42527420223206,26.756118771508795 L117.70985131232617,24.182963500139635 L117.70985131232617,24.182963500139635 Q117.85414039296369,24.63987892215846 118.11867037413248,25.096794344177283 L118.11867037413248,25.096794344177283 L118.11867037413248,25.096794344177283 Q118.38320035530127,25.553709766196107 118.71987487678882,25.890384287683673 L118.71987487678882,25.890384287683673 L118.71987487678882,25.890384287683673 Q119.08059757838264,26.251106989277446 119.51346482029518,26.49158879033999 L119.51346482029518,26.49158879033999 L119.51346482029518,26.49158879033999 Q119.94633206220776,26.70802241129627 120.47539202454534,26.70802241129627 L120.47539202454534,26.70802241129627 L120.47539202454534,26.70802241129627 Q121.34112650837048,26.70802241129627 122.15876463198308,26.395396069914995 L122.15876463198308,26.395396069914995 L122.15876463198308,26.395396069914995 Q122.9764027555957,26.058721548427428 123.6978481587833,25.601806126408604 L123.6978481587833,25.601806126408604 L124.13071540069589,26.058721548427428 L124.13071540069589,26.058721548427428 Q123.50546271793328,26.63587787097751 122.8802100351707,27.333275094058877 L122.8802100351707,27.333275094058877 L122.8802100351707,27.333275094058877 Q122.23090917230184,28.030672317140215 121.72589739007053,28.824262260646606 L121.72589739007053,28.824262260646606 L121.72589739007053,28.824262260646606 Q121.22088560783921,29.593804024046733 120.90825926645789,30.48358668797809 L120.90825926645789,30.48358668797809 L120.90825926645789,30.48358668797809 Q120.5956329250766,31.34932117180324 120.5956329250766,32.239103835734625 L120.5956329250766,32.239103835734625 L120.5956329250766,32.239103835734625 Q120.5956329250766,32.744115617965946 120.73992200571413,33.369368300728524 L120.73992200571413,33.369368300728524 L120.73992200571413,33.369368300728524 Q120.88421108635166,34.018669163597394 121.17278924762668,34.57177730604121 L121.17278924762668,34.57177730604121 L121.17278924762668,34.57177730604121 Q121.46136740890174,35.148933628591294 121.91828283092055,35.53370451029136 L121.91828283092055,35.53370451029136 L121.91828283092055,35.53370451029136 Q122.35115007283314,35.91847539199142 122.9764027555957,35.91847539199142 L122.9764027555957,35.91847539199142 L122.9764027555957,35.91847539199142 Q123.40926999750829,35.91847539199142 123.8180890593146,35.75013813124764 L123.8180890593146,35.75013813124764 L123.8180890593146,35.75013813124764 Q124.20285994101465,35.60584905061012 124.5395344625022,35.3653672495476 L124.5395344625022,35.3653672495476 zM127.16078609408386,17.32923216985735 L130.6237240293844,16.150871344650923 L129.75798954555927,22.138868191108088 L128.14676147844025,22.64387997333941 L127.16078609408386,17.32923216985735 zM132.4513857174597,35.17298180869756 L132.88425295937222,35.67799359092891 L132.88425295937222,35.67799359092891 Q132.52353025777842,36.47158353443527 132.0185184755471,36.90445077634783 L132.0185184755471,36.90445077634783 L132.0185184755471,36.90445077634783 Q131.51350669331575,37.33731801826039 131.05659127129695,37.52970345911041 L131.05659127129695,37.52970345911041 L131.05659127129695,37.52970345911041 Q130.50348312885308,37.74613708006672 129.95037498640926,37.794233440279214 L129.95037498640926,37.794233440279214 L129.95037498640926,37.794233440279214 Q129.22892958322166,37.794233440279214 128.7479659810966,37.55375163921667 L128.7479659810966,37.55375163921667 L128.7479659810966,37.55375163921667 Q128.2670023789715,37.33731801826039 128.0024723978027,36.95254713656033 L128.0024723978027,36.95254713656033 L128.0024723978027,36.95254713656033 Q127.71389423652766,36.56777625486029 127.61770151610267,36.086812652735205 L127.61770151610267,36.086812652735205 L127.61770151610267,36.086812652735205 Q127.49746061557141,35.62989723071638 127.49746061557141,35.12488544848506 L127.49746061557141,35.12488544848506 L127.49746061557141,25.914432467789908 L130.52753130895934,24.880360723221003 L130.52753130895934,35.19702998880382 L130.52753130895934,35.19702998880382 Q130.52753130895934,35.60584905061012 130.69586856970315,35.82228267156643 L130.69586856970315,35.82228267156643 L130.69586856970315,35.82228267156643 Q130.88825401055317,36.06276447262894 131.1768321718282,36.06276447262894 L131.1768321718282,36.06276447262894 L131.1768321718282,36.06276447262894 Q131.46541033310325,36.086812652735205 131.80208485459084,35.870379031778924 L131.80208485459084,35.870379031778924 L131.80208485459084,35.870379031778924 Q132.13875937607835,35.653945410822644 132.4513857174597,35.17298180869756 L132.4513857174597,35.17298180869756 z" style="fill:white;" stroke-width="0" id="svg_1"/></g><g data-v-423bf9ae="" id="2dd407bf-11b2-408c-a4dc-68c794b419f9" stroke="none" fill="black" class=""><path d="M24.98755471918482,5.915420935678924 a22.107492829208812,22.107492829208812 0 0 0 -11.698694323765395,3.3313211379201273 l-0.3125627283595191,0.19420257754692608 c-6.3805314309422325,4.107556884268884 -10.193337065857365,11.091954909890992 -10.193337065857365,18.679644966354125 c0,9.21542941205603 5.546839300703844,17.33516558333703 14.131972181490763,20.686021891779657 l0.8009419914212962,0.3125627283595191 l-0.729696075398171,0.45505456040580206 a22.915329586696863,22.915329586696863 0 0 1 -9.784247612563282,3.342237850859158 a22.13794471267031,22.13794471267031 0 0 0 6.528194337538557,0.9750348346068409 c4.2776277805821525,0 8.428851516607159,-1.2180753384599314 12.005511413735956,-3.5215017685947774 l0.09825041645124462,-0.06320202227858912 l0.11721102313482779,-0.0051710745500740994 c11.911282944156955,-0.5004451036785733 21.242774251670042,-10.243324119841345 21.242774251670042,-22.180462436748638 c-0.0011491276777907291,-12.244529970716771 -9.96178783878219,-22.205743245660077 -22.20631780949895,-22.205743245660077 zM9.852394074981298,19.178078028919742 l0.6096122330688486,-0.6096122330688486 l4.981468483230001,4.980893919391086 l-4.981468483230001,4.982043047068918 l-0.6096122330688486,-0.6096122330688812 l4.3718562501611355,-4.372430814000036 l-4.3718562501611355,-4.371281686322238 zM10.156912909596286,33.550792458908035 h1.8345823375955346 v0.8618457583442896 h-1.8345823375955346 v-0.8618457583442896 zM15.81521759504598,37.61755531061527 h-5.6577301216108165 v-0.8618457583442896 h5.6577301216108165 v0.8618457583442896 zM15.81521759504598,31.20657199621155 h-5.6577301216108165 v-0.8618457583442896 h5.6577301216108165 v0.8618457583442896 zM17.669335103164002,34.41263821725232 h-1.4835238320299502 v-0.8618457583442896 h1.4835238320299502 v0.8618457583442896 zM34.24377816380248,20.73974254303961 h1.1008643153251036 v0.8618457583442896 h-1.1008643153251036 v-0.8618457583442896 zM34.24377816380248,25.49828025677789 h1.1008643153251036 v0.8618457583442896 h-1.1008643153251036 v-0.8618457583442896 zM24.61753560693567,20.73974254303961 h6.252978258707273 v0.8618457583442896 h-6.252978258707273 v-0.8618457583442896 zM33.00616765482008,23.118436836069833 v0.8618457583443059 h-6.251829131029475 v-0.8618457583443059 h6.251829131029475 zM22.279635346467053,23.118436836069833 h1.1014388791640026 v0.8618457583443059 h-1.1014388791640026 v-0.8618457583443059 zM27.761548933375625,30.34472623786729 v0.8618457583442896 h-8.425404133573766 v-0.8618457583442896 h8.425404133573766 zM17.805506732982394,20.73974254303961 h4.1994870984922885 v0.8618457583442896 h-4.1994870984922885 v-0.8618457583442896 zM17.805506732982394,23.118436836069833 h1.3622908620228786 v0.8618457583443059 h-1.3622908620228786 v-0.8618457583443059 zM17.805506732982394,25.49828025677789 h4.1994870984922885 v0.8618457583442896 h-4.1994870984922885 v-0.8618457583442896 zM23.64479902768441,37.61755531061527 h-4.308654227882548 v-0.8618457583442896 h4.308654227882548 v0.8618457583442896 zM30.638964638567767,34.41263821725232 h-8.424255005895967 v-0.8618457583442896 h8.424255005895967 v0.8618457583442896 zM30.87051386564294,26.360126015122177 h-6.252978258707273 v-0.8618457583442896 h6.252978258707273 v0.8618457583442896 zM33.789872731074496,37.61755531061527 h-1.4835238320299664 v-0.8618457583442896 h1.4835238320299664 v0.8618457583442896 zM33.789872731074496,31.20657199621155 h-1.4835238320299664 v-0.8618457583442896 h1.4835238320299664 v0.8618457583442896 zM39.81877109261224,37.61755531061527 h-1.8345823375955426 v-0.8618457583442896 h1.8340077737566518 v0.8618457583442896 zM39.81877109261224,34.41263821725232 h-5.657155557771917 v-0.8618457583442896 h5.657155557771917 v0.8618457583442896 zM39.81877109261224,31.20657199621155 h-1.8345823375955426 v-0.8618457583442896 h1.8340077737566518 v0.8618457583442896 zM39.81877109261224,26.360126015122177 h-1.3611417343450811 v-0.8618457583442896 h1.3611417343450811 v0.8618457583442896 zM39.81877109261224,23.980282594414135 h-4.198912534653373 v-0.8618457583442896 h4.198912534653365 v0.8618457583442896 zM39.81877109261224,21.6015883013839 h-1.3611417343450811 v-0.8618457583442896 h1.3611417343450811 v0.8618457583442896 z" style="fill:white;" stroke-width="0" id="svg_2"/></g><g data-v-423bf9ae="" id="39009667-87a1-42be-a337-49b1348f9a75" fill="black" class=""><path d="M60.03242448267307,55.29661008426848 L60.83748923080026,55.29661008426848 L61.39753427297569,56.18668166915444 L61.71005940811823,56.18668166915444 L61.10001034431999,55.25160646480796 C61.36003125675858,55.19160163886059 61.66005538649542,55.041589573992155 61.66005538649542,54.59405358046806 C61.66005538649542,54.15401819018737 61.35753105567744,53.86899526693736 60.87999264917964,53.86899526693736 L59.76990336915334,53.86899526693736 L59.76990336915334,56.18668166915444 L60.03242448267307,56.18668166915444 zM60.03242448267307,54.11901537505139 L60.849990236205954,54.11901537505139 C61.17751657783534,54.11901537505139 61.39753427297569,54.29902985289351 61.39753427297569,54.59405358046806 C61.39753427297569,54.95408253615227 61.082508936752006,55.0490901772356 60.83498902971912,55.0490901772356 L60.03242448267307,55.0490901772356 zM64.54528743413135,55.97666477833866 C64.19275908169057,55.97666477833866 63.9652407833068,55.72914487130575 63.925237566008555,55.41661973616323 L65.39285560063792,55.41661973616323 L65.39285560063792,55.31161129075534 C65.39285560063792,54.81157107452728 65.06032885684625,54.40903870046367 64.52528582548223,54.40903870046367 C63.98774259303706,54.40903870046367 63.655215849245394,54.81157107452728 63.655215849245394,55.31161129075534 C63.655215849245394,55.811651506983395 64.00524400060505,56.21418388104698 64.5427872330502,56.21418388104698 C64.9578206125195,56.21418388104698 65.21784152495809,55.99666638698778 65.34035137793397,55.681641050764085 L65.05282825360283,55.681641050764085 C64.9578206125195,55.85665512644391 64.7903071400831,55.97666477833866 64.54528743413135,55.97666477833866 zM64.52528582548223,54.64655780317199 C64.86031277035502,54.64655780317199 65.07032966117082,54.87407610155577 65.12033368279363,55.171600030211465 L63.93023796817083,55.171600030211465 C63.9777417887125,54.87407610155577 64.18775867952829,54.64655780317199 64.52528582548223,54.64655780317199 zM68.07307115962034,54.40903870046367 C67.62303496501508,54.40903870046367 67.3880160633879,54.59405358046806 67.3880160633879,54.909078916691726 C67.3880160633879,55.549130393463656 68.55310976719927,55.276608475619355 68.55310976719927,55.71414366481892 C68.55310976719927,55.95166276752724 68.24808523530015,55.99166598482549 68.10557377367516,55.99166598482549 C67.76554642664007,55.99166598482549 67.63303576933964,55.81665190914566 67.61553436177167,55.63663743130357 L67.34301244392736,55.63663743130357 C67.36051385149534,55.944162164283824 67.61553436177167,56.21418388104698 68.10057337151288,56.21418388104698 C68.5356083596313,56.21418388104698 68.81563088071901,56.02916900104259 68.81563088071901,55.68914165400753 C68.81563088071901,55.03158876966762 67.65053717690762,55.304110687511894 67.65053717690762,54.884076905880335 C67.65053717690762,54.714063232362804 67.79304863853262,54.63155659668516 68.06557055637691,54.63155659668516 C68.36059428395147,54.63155659668516 68.47310333260279,54.754066449661025 68.49310494125191,54.90657871561061 L68.76062645693392,54.90657871561061 C68.72812384287911,54.649058004253135 68.5356083596313,54.40903870046367 68.07307115962034,54.40903870046367 zM71.68336152078696,55.97666477833866 C71.32833296726503,55.97666477833866 71.10081466888127,55.72914487130575 71.06331165266415,55.41661973616323 L72.52842948621239,55.41661973616323 L72.52842948621239,55.31161129075534 C72.52842948621239,54.81157107452728 72.19590274242071,54.40903870046367 71.6608597110567,54.40903870046367 C71.12581667969266,54.40903870046367 70.793289935901,54.81157107452728 70.793289935901,55.31161129075534 C70.793289935901,55.811651506983395 71.14331808726064,56.21418388104698 71.67836111862468,56.21418388104698 C72.09589469917512,56.21418388104698 72.35341541053256,55.99666638698778 72.47592526350843,55.681641050764085 L72.19090234025845,55.681641050764085 C72.09589469917512,55.85665512644391 71.92838122673871,55.97666477833866 71.68336152078696,55.97666477833866 zM71.6608597110567,54.64655780317199 C71.99838685701064,54.64655780317199 72.20840374782642,54.87407610155577 72.25590756836809,55.171600030211465 L71.0658118537453,55.171600030211465 C71.1158158753681,54.87407610155577 71.3258327661839,54.64655780317199 71.6608597110567,54.64655780317199 zM75.34115570249524,54.40903870046367 C74.82861448086149,54.40903870046367 74.49358753598867,54.81157107452728 74.49358753598867,55.31161129075534 C74.49358753598867,55.811651506983395 74.82861448086149,56.21418388104698 75.34115570249524,56.21418388104698 C75.63117902790752,56.21418388104698 75.83619551656103,56.09667443023338 75.96620597278033,55.90665914806672 L75.96620597278033,56.18668166915444 L76.22872708630005,56.18668166915444 L76.22872708630005,54.43654091235621 L75.96620597278033,54.43654091235621 L75.96620597278033,54.71906363452507 C75.83619551656103,54.53154855343956 75.63117902790752,54.40903870046367 75.34115570249524,54.40903870046367 zM75.37615851763121,55.97666477833866 C74.98612714897332,55.97666477833866 74.75610864950842,55.67164024643952 74.75610864950842,55.31161129075534 C74.75610864950842,54.95158233507112 74.98612714897332,54.64655780317199 75.37615851763121,54.64655780317199 C75.76368968520796,54.64655780317199 75.98120717926716,54.95158233507112 75.98120717926716,55.31161129075534 C75.98120717926716,55.67164024643952 75.76368968520796,55.97666477833866 75.37615851763121,55.97666477833866 zM79.34147743231975,54.40903870046367 C78.90644244420135,54.40903870046367 78.73142836852152,54.74906604749876 78.69642555338555,54.86657549831236 L78.69642555338555,54.43654091235621 L78.43390443986581,54.43654091235621 L78.43390443986581,56.18668166915444 L78.69642555338555,56.18668166915444 L78.69642555338555,55.41661973616323 C78.69642555338555,55.03158876966762 78.93394465609389,54.67155981398341 79.3264762258329,54.67155981398341 L79.35897883988774,54.67155981398341 L79.35897883988774,54.40903870046367 zM82.1342020399535,55.97666477833866 C81.74667087237674,55.97666477833866 81.50165116642499,55.67164024643952 81.50165116642499,55.31161129075534 C81.50165116642499,54.95158233507112 81.74667087237674,54.64655780317199 82.1342020399535,54.64655780317199 C82.38172194698637,54.64655780317199 82.5617364248285,54.78656906371586 82.64174285942497,54.98658515020708 L82.92426558159381,54.98658515020708 C82.8242575383482,54.64655780317199 82.51173240320567,54.40903870046367 82.09919922481753,54.40903870046367 C81.57415699777806,54.40903870046367 81.23913005290527,54.81157107452728 81.23913005290527,55.31161129075534 C81.23913005290527,55.811651506983395 81.57415699777806,56.21418388104698 82.09919922481753,56.21418388104698 C82.51173240320567,56.21418388104698 82.8242575383482,55.97666477833866 82.92426558159381,55.63663743130357 L82.64174285942497,55.63663743130357 C82.5617364248285,55.83665351779479 82.38172194698637,55.97666477833866 82.1342020399535,55.97666477833866 zM85.00193268002144,53.73648460963693 L85.00193268002144,56.18668166915444 L85.26445379354115,56.18668166915444 L85.26445379354115,55.17910063345488 C85.26445379354115,54.86407529723121 85.5019728962495,54.64655780317199 85.79199622166178,54.64655780317199 C86.0795193459929,54.64655780317199 86.28203563356527,54.85657469398777 86.28203563356527,55.17410023129261 L86.28203563356527,56.18668166915444 L86.54455674708501,56.18668166915444 L86.54455674708501,55.16909982913032 C86.54455674708501,54.67155981398341 86.20452940004992,54.40903870046367 85.84450044436572,54.40903870046367 C85.56197772219687,54.40903870046367 85.38946384759817,54.5415493577641 85.26445379354115,54.70906283020051 L85.26445379354115,53.73648460963693 zM92.32252144560027,53.86899526693736 L91.99499510397092,53.86899526693736 L91.0099158780016,56.18668166915444 L91.30243940449505,56.18668166915444 L91.5849621266639,55.5141275783277 L92.7325544229073,55.5141275783277 L93.01757734615728,56.18668166915444 L93.30760067156956,56.18668166915444 zM91.68747037099064,55.27410827453821 L92.16000837532616,54.14151718478166 L92.63254637966168,55.27410827453821 zM95.90530959487434,54.40903870046367 C95.45277319918796,54.40903870046367 95.21775429756076,54.59405358046806 95.21775429756076,54.909078916691726 C95.21775429756076,55.549130393463656 96.38284800137217,55.276608475619355 96.38284800137217,55.71414366481892 C96.38284800137217,55.95166276752724 96.08032367055418,55.99166598482549 95.93531200784803,55.99166598482549 C95.59528466081294,55.99166598482549 95.46277400351251,55.81665190914566 95.44527259594454,55.63663743130357 L95.17275067810024,55.63663743130357 C95.19025208566823,55.944162164283824 95.44527259594454,56.21418388104698 95.93281180676689,56.21418388104698 C96.36534659380416,56.21418388104698 96.64536911489188,56.02916900104259 96.64536911489188,55.68914165400753 C96.64536911489188,55.03158876966762 95.4802754110805,55.304110687511894 95.4802754110805,54.884076905880335 C95.4802754110805,54.714063232362804 95.62528707378662,54.63155659668516 95.89780899163092,54.63155659668516 C96.19033251812436,54.63155659668516 96.30284156677565,54.754066449661025 96.32534337650593,54.90657871561061 L96.59036469110679,54.90657871561061 C96.55786207705196,54.649058004253135 96.36534659380416,54.40903870046367 95.90530959487434,54.40903870046367 zM99.34058588036115,54.40903870046367 C98.8905496857559,54.40903870046367 98.65553078412869,54.59405358046806 98.65553078412869,54.909078916691726 C98.65553078412869,55.549130393463656 99.8206244879401,55.276608475619355 99.8206244879401,55.71414366481892 C99.8206244879401,55.95166276752724 99.51559995604097,55.99166598482549 99.37308849441595,55.99166598482549 C99.03306114738088,55.99166598482549 98.90055049008043,55.81665190914566 98.88304908251249,55.63663743130357 L98.61052716466818,55.63663743130357 C98.62802857223616,55.944162164283824 98.88304908251249,56.21418388104698 99.37058829333482,56.21418388104698 C99.8031230803721,56.21418388104698 100.08314560145982,56.02916900104259 100.08314560145982,55.68914165400753 C100.08314560145982,55.03158876966762 98.91805189764844,55.304110687511894 98.91805189764844,54.884076905880335 C98.91805189764844,54.714063232362804 99.06056335927343,54.63155659668516 99.33558547819885,54.63155659668516 C99.6281090046923,54.63155659668516 99.7406180533436,54.754066449661025 99.76061966199273,54.90657871561061 L100.02814117767473,54.90657871561061 C99.9956385636199,54.649058004253135 99.8031230803721,54.40903870046367 99.34058588036115,54.40903870046367 zM102.17081350421199,56.18668166915444 L102.4333346177317,56.18668166915444 L102.4333346177317,54.43654091235621 L102.17081350421199,54.43654091235621 zM102.15831249880627,53.798989636665425 L102.15831249880627,54.14151718478166 L102.4433354220563,54.14151718478166 L102.4433354220563,53.798989636665425 zM105.24606083401457,54.40903870046367 C104.79602463940932,54.40903870046367 104.56100573778212,54.59405358046806 104.56100573778212,54.909078916691726 C104.56100573778212,55.549130393463656 105.72609944159353,55.276608475619355 105.72609944159353,55.71414366481892 C105.72609944159353,55.95166276752724 105.4210749096944,55.99166598482549 105.27856344806939,55.99166598482549 C104.93853610103432,55.99166598482549 104.80602544373387,55.81665190914566 104.78852403616591,55.63663743130357 L104.51600211832161,55.63663743130357 C104.53350352588957,55.944162164283824 104.78852403616591,56.21418388104698 105.27356304590711,56.21418388104698 C105.70859803402553,56.21418388104698 105.98862055511324,56.02916900104259 105.98862055511324,55.68914165400753 C105.98862055511324,55.03158876966762 104.82352685130186,55.304110687511894 104.82352685130186,54.884076905880335 C104.82352685130186,54.714063232362804 104.96603831292686,54.63155659668516 105.23856023077116,54.63155659668516 C105.5335839583457,54.63155659668516 105.64609300699703,54.754066449661025 105.66609461564616,54.90657871561061 L105.93361613132817,54.90657871561061 C105.90111351727333,54.649058004253135 105.70859803402553,54.40903870046367 105.24606083401457,54.40903870046367 zM108.52632465247066,56.18668166915444 L108.52632465247066,54.66655941182111 L108.92885702653426,54.66655941182111 L108.92885702653426,54.43654091235621 L108.52632465247066,54.43654091235621 L108.52632465247066,53.80899044098999 L108.26380353895095,53.80899044098999 L108.26380353895095,54.43654091235621 L107.90627478434786,54.43654091235621 L107.90627478434786,54.66655941182111 L108.26380353895095,54.66655941182111 L108.26380353895095,56.18668166915444 zM111.66907741146406,54.40903870046367 C111.15903639091141,54.40903870046367 110.8215092449575,54.81157107452728 110.8215092449575,55.31161129075534 C110.8215092449575,55.811651506983395 111.15903639091141,56.21418388104698 111.66907741146406,56.21418388104698 C111.95910073687634,56.21418388104698 112.16661742661098,56.09667443023338 112.29662788283028,55.90665914806672 L112.29662788283028,56.18668166915444 L112.55914899634999,56.18668166915444 L112.55914899634999,54.43654091235621 L112.29662788283028,54.43654091235621 L112.29662788283028,54.71906363452507 C112.16661742661098,54.53154855343956 111.95910073687634,54.40903870046367 111.66907741146406,54.40903870046367 zM111.70408022660001,55.97666477833866 C111.31654905902329,55.97666477833866 111.08403035847722,55.67164024643952 111.08403035847722,55.31161129075534 C111.08403035847722,54.95158233507112 111.31654905902329,54.64655780317199 111.70408022660001,54.64655780317199 C112.0941115952579,54.64655780317199 112.30912888823596,54.95158233507112 112.30912888823596,55.31161129075534 C112.30912888823596,55.67164024643952 112.0941115952579,55.97666477833866 111.70408022660001,55.97666477833866 zM114.76432634991576,54.43654091235621 L114.76432634991576,56.18668166915444 L115.02684746343549,56.18668166915444 L115.02684746343549,55.17910063345488 C115.02684746343549,54.86407529723121 115.26436656614383,54.64655780317199 115.5543898915561,54.64655780317199 C115.84191301588723,54.64655780317199 116.04442930345961,54.85657469398777 116.04442930345961,55.17410023129261 L116.04442930345961,56.18668166915444 L116.30695041697933,56.18668166915444 L116.30695041697933,55.16909982913032 C116.30695041697933,54.67155981398341 115.96692306994424,54.40903870046367 115.60689411426006,54.40903870046367 C115.3243713920912,54.40903870046367 115.1518575174925,54.5415493577641 115.02684746343549,54.70906283020051 L115.02684746343549,54.43654091235621 zM118.90465934028411,56.18668166915444 L118.90465934028411,54.66655941182111 L119.30719171434771,54.66655941182111 L119.30719171434771,54.43654091235621 L118.90465934028411,54.43654091235621 L118.90465934028411,53.80899044098999 L118.6421382267644,53.80899044098999 L118.6421382267644,54.43654091235621 L118.28460947216132,54.43654091235621 L118.28460947216132,54.66655941182111 L118.6421382267644,54.66655941182111 L118.6421382267644,56.18668166915444 z" style="fill:white;" stroke-width="0" id="svg_3"/></g></g></svg>