<svg xmlns="http://www.w3.org/2000/svg" xmlns:xlink="http://www.w3.org/1999/xlink" data-v-423bf9ae="" viewBox="-0.028193427249789238 -0.05125347524881363 148.9736785888672 180.10250854492188" class="iconAboveSlogan" width="100%" height="100%" ><rect id="svgEditorBackground" x="0" y="0" width="148.91729736328125" height="180" style="fill:none;stroke:none;"/><!----><!----><!----><g data-v-423bf9ae="" id="845e254c-d82b-44f5-840e-f19c186645de" fill="black" transform="matrix(4.51127813079263,0,0,4.51127813079263,-2.3909777738151234,88.96992334071962)"><path d="M14.593623307379627,12.269643053812956L14.593623307379627,12.269643053812956L14.593623307379627,12.269643053812956Q14.593623307379627,12.859643053812956,14.37362330737962,13.399643053812955L14.37362330737962,13.399643053812955L14.37362330737962,13.399643053812955Q14.143623307379624,13.939643053812954,13.773623307379626,14.409643053812953L13.773623307379626,14.409643053812953L13.773623307379626,14.409643053812953Q13.393623307379624,14.879643053812956,12.893623307379624,15.259643053812955L12.893623307379624,15.259643053812955L12.893623307379624,15.259643053812955Q12.393623307379624,15.649643053812955,11.833623307379622,15.919643053812955L11.833623307379622,15.919643053812955L11.833623307379622,15.919643053812955Q11.273623307379626,16.189643053812954,10.693623307379621,16.339643053812953L10.693623307379621,16.339643053812953L10.693623307379621,16.339643053812953Q10.103623307379625,16.499643053812957,9.563623307379626,16.499643053812957L9.563623307379626,16.499643053812957L9.563623307379626,16.499643053812957Q9.513623307379621,16.499643053812957,9.453623307379626,16.499643053812957L9.453623307379626,16.499643053812957L9.453623307379626,16.499643053812957Q9.393623307379624,16.499643053812957,9.343623307379627,16.479643053812953L9.343623307379627,16.479643053812953L9.413623307379627,16.109643053812956L9.413623307379627,16.109643053812956Q9.863623307379623,16.029643053812954,10.313623307379626,15.879643053812956L10.313623307379626,15.879643053812956L10.313623307379626,15.879643053812956Q10.773623307379626,15.719643053812955,11.183623307379623,15.489643053812955L11.183623307379623,15.489643053812955L11.183623307379623,15.489643053812955Q11.603623307379625,15.259643053812955,11.963623307379624,14.959643053812957L11.963623307379624,14.959643053812957L11.963623307379624,14.959643053812957Q12.333623307379622,14.659643053812953,12.593623307379627,14.279643053812954L12.593623307379627,14.279643053812954L12.593623307379627,14.279643053812954Q12.863623307379623,13.909643053812953,13.013623307379621,13.469643053812955L13.013623307379621,13.469643053812955L13.013623307379621,13.469643053812955Q13.173623307379625,13.029643053812954,13.173623307379625,12.519643053812956L13.173623307379625,12.519643053812956L13.173623307379625,12.519643053812956Q13.173623307379625,12.039643053812956,13.013623307379621,11.629643053812956L13.013623307379621,11.629643053812956L13.013623307379621,11.629643053812956Q12.853623307379625,11.219643053812955,12.573623307379624,10.919643053812955L12.573623307379624,10.919643053812955L12.573623307379624,10.919643053812955Q12.293623307379622,10.619643053812954,11.893623307379624,10.449643053812956L11.893623307379624,10.449643053812956L11.893623307379624,10.449643053812956Q11.493623307379625,10.279643053812954,11.013623307379621,10.279643053812954L11.013623307379621,10.279643053812954L11.013623307379621,10.279643053812954Q10.503623307379623,10.279643053812954,9.973623307379622,10.399643053812955L9.973623307379622,10.399643053812955L9.973623307379622,10.399643053812955Q9.443623307379621,10.509643053812955,8.923623307379625,10.729643053812953L8.923623307379625,10.729643053812953L8.923623307379625,10.729643053812953Q8.403623307379622,10.939643053812954,7.923623307379625,11.239643053812955L7.923623307379625,11.239643053812955L7.923623307379625,11.239643053812955Q7.443623307379621,11.549643053812954,7.043623307379622,11.909643053812953L7.043623307379622,11.909643053812953L6.8236233073796235,11.679643053812956L6.8236233073796235,11.679643053812956Q7.293623307379622,11.219643053812955,7.893623307379624,10.809643053812955L7.893623307379624,10.809643053812955L7.893623307379624,10.809643053812955Q8.48362330737962,10.399643053812955,9.143623307379624,10.099643053812954L9.143623307379624,10.099643053812954L9.143623307379624,10.099643053812954Q9.80362330737962,9.799643053812954,10.473623307379622,9.619643053812954L10.473623307379622,9.619643053812954L10.473623307379622,9.619643053812954Q11.143623307379624,9.439643053812954,11.773623307379626,9.439643053812954L11.773623307379626,9.439643053812954L11.773623307379626,9.439643053812954Q12.363623307379623,9.439643053812954,12.883623307379626,9.649643053812955L12.883623307379626,9.649643053812955L12.883623307379626,9.649643053812955Q13.393623307379624,9.859643053812956,13.773623307379626,10.229643053812953L13.773623307379626,10.229643053812953L13.773623307379626,10.229643053812953Q14.153623307379622,10.609643053812956,14.37362330737962,11.129643053812956L14.37362330737962,11.129643053812956L14.37362330737962,11.129643053812956Q14.593623307379627,11.649643053812955,14.593623307379627,12.269643053812956ZM9.033623307379624,11.419643053812955L9.033623307379624,19.059643053812955L7.623623307379621,19.579643053812955L7.623623307379621,11.909643053812953L9.033623307379624,11.419643053812955ZM19.613623307379623,18.339643053812953L19.80362330737962,18.549643053812954L19.80362330737962,18.549643053812954Q19.723623307379622,18.729643053812953,19.59362330737962,18.889643053812957L19.59362330737962,18.889643053812957L19.59362330737962,18.889643053812957Q19.473623307379622,19.039643053812956,19.31362330737962,19.169643053812955L19.31362330737962,19.169643053812955L19.31362330737962,19.169643053812955Q19.153623307379622,19.289643053812956,18.963623307379624,19.359643053812956L18.963623307379624,19.359643053812956L18.963623307379624,19.359643053812956Q18.77362330737962,19.429643053812956,18.573623307379624,19.429643053812956L18.573623307379624,19.429643053812956L18.573623307379624,19.429643053812956Q18.033623307379624,19.429643053812956,17.793623307379622,19.139643053812957L17.793623307379622,19.139643053812957L17.793623307379622,19.139643053812957Q17.56362330737962,18.839643053812953,17.56362330737962,18.329643053812955L17.56362330737962,18.329643053812955L17.56362330737962,18.199643053812956L17.56362330737962,18.199643053812956Q17.433623307379623,18.439643053812954,17.283623307379624,18.669643053812955L17.283623307379624,18.669643053812955L17.283623307379624,18.669643053812955Q17.12362330737962,18.899643053812955,16.933623307379623,19.089643053812953L16.933623307379623,19.089643053812953L16.933623307379623,19.089643053812953Q16.743623307379618,19.269643053812953,16.503623307379623,19.389643053812957L16.503623307379623,19.389643053812957L16.503623307379623,19.389643053812957Q16.26362330737962,19.499643053812957,15.963623307379624,19.499643053812957L15.963623307379624,19.499643053812957L15.963623307379624,19.499643053812957Q15.523623307379626,19.499643053812957,15.183623307379623,19.329643053812955L15.183623307379623,19.329643053812955L15.183623307379623,19.329643053812955Q14.833623307379622,19.159643053812953,14.603623307379625,18.869643053812954L14.603623307379625,18.869643053812954L14.603623307379625,18.869643053812954Q14.37362330737962,18.579643053812955,14.253623307379623,18.189643053812954L14.253623307379623,18.189643053812954L14.253623307379623,18.189643053812954Q14.143623307379624,17.799643053812954,14.143623307379624,17.359643053812956L14.143623307379624,17.359643053812956L14.143623307379624,17.359643053812956Q14.143623307379624,16.769643053812953,14.353623307379625,16.179643053812956L14.353623307379625,16.179643053812956L14.353623307379625,16.179643053812956Q14.55362330737962,15.589643053812953,14.933623307379623,15.119643053812954L14.933623307379623,15.119643053812954L14.933623307379623,15.119643053812954Q15.313623307379626,14.659643053812953,15.84362330737962,14.369643053812954L15.84362330737962,14.369643053812954L15.84362330737962,14.369643053812954Q16.37362330737962,14.079643053812955,17.02362330737962,14.079643053812955L17.02362330737962,14.079643053812955L17.02362330737962,14.079643053812955Q17.283623307379624,14.079643053812955,17.543623307379622,14.119643053812954L17.543623307379622,14.119643053812954L17.543623307379622,14.119643053812954Q17.80362330737962,14.169643053812955,18.043623307379622,14.279643053812954L18.043623307379622,14.279643053812954L18.043623307379622,14.279643053812954Q18.27362330737962,14.379643053812956,18.473623307379622,14.549643053812954L18.473623307379622,14.549643053812954L18.473623307379622,14.549643053812954Q18.66362330737962,14.719643053812955,18.793623307379622,14.969643053812955L18.793623307379622,14.969643053812955L17.77362330737962,15.399643053812955L17.77362330737962,15.399643053812955Q17.69362330737962,15.269643053812953,17.58362330737962,15.149643053812955L17.58362330737962,15.149643053812955L17.58362330737962,15.149643053812955Q17.473623307379622,15.029643053812954,17.353623307379625,14.939643053812954L17.353623307379625,14.939643053812954L17.353623307379625,14.939643053812954Q17.223623307379622,14.849643053812954,17.08362330737962,14.799643053812954L17.08362330737962,14.799643053812954L17.08362330737962,14.799643053812954Q16.933623307379623,14.749643053812957,16.783623307379624,14.749643053812957L16.783623307379624,14.749643053812957L16.783623307379624,14.749643053812957Q16.423623307379625,14.749643053812957,16.143623307379624,14.959643053812957L16.143623307379624,14.959643053812957L16.143623307379624,14.959643053812957Q15.87362330737962,15.179643053812956,15.673623307379625,15.499643053812957L15.673623307379625,15.499643053812957L15.673623307379625,15.499643053812957Q15.48362330737962,15.829643053812955,15.37362330737962,16.189643053812954L15.37362330737962,16.189643053812954L15.37362330737962,16.189643053812954Q15.273623307379626,16.549643053812954,15.273623307379626,16.839643053812953L15.273623307379626,16.839643053812953L15.273623307379626,16.839643053812953Q15.273623307379626,17.099643053812954,15.323623307379624,17.429643053812956L15.323623307379624,17.429643053812956L15.323623307379624,17.429643053812956Q15.37362330737962,17.749643053812957,15.503623307379623,18.039643053812956L15.503623307379623,18.039643053812956L15.503623307379623,18.039643053812956Q15.633623307379619,18.329643053812955,15.853623307379625,18.529643053812954L15.853623307379625,18.529643053812954L15.853623307379625,18.529643053812954Q16.06362330737962,18.719643053812955,16.38362330737962,18.719643053812955L16.38362330737962,18.719643053812955L16.38362330737962,18.719643053812955Q16.63362330737962,18.719643053812955,16.823623307379624,18.609643053812956L16.823623307379624,18.609643053812956L16.823623307379624,18.609643053812956Q17.003623307379623,18.499643053812957,17.13362330737962,18.319643053812957L17.13362330737962,18.319643053812957L17.13362330737962,18.319643053812957Q17.26362330737962,18.139643053812957,17.353623307379625,17.899643053812955L17.353623307379625,17.899643053812955L17.353623307379625,17.899643053812955Q17.433623307379623,17.659643053812953,17.48362330737962,17.419643053812955L17.48362330737962,17.419643053812955L17.48362330737962,17.419643053812955Q17.52362330737962,17.169643053812955,17.543623307379622,16.929643053812956L17.543623307379622,16.929643053812956L17.543623307379622,16.929643053812956Q17.56362330737962,16.689643053812954,17.56362330737962,16.499643053812957L17.56362330737962,16.499643053812957L17.56362330737962,16.019643053812953L18.80362330737962,15.589643053812953L18.80362330737962,18.359643053812956L18.80362330737962,18.359643053812956Q18.80362330737962,18.499643053812957,18.87362330737962,18.609643053812956L18.87362330737962,18.609643053812956L18.87362330737962,18.609643053812956Q18.94362330737962,18.719643053812955,19.08362330737962,18.719643053812955L19.08362330737962,18.719643053812955L19.08362330737962,18.719643053812955Q19.253623307379623,18.719643053812955,19.393623307379624,18.599643053812954L19.393623307379624,18.599643053812954L19.393623307379624,18.599643053812954Q19.533623307379624,18.469643053812955,19.613623307379623,18.339643053812953L19.613623307379623,18.339643053812953ZM23.173623307379625,19.489643053812955L23.173623307379625,19.489643053812955L23.173623307379625,19.489643053812955Q22.933623307379623,19.489643053812955,22.713623307379624,19.419643053812955L22.713623307379624,19.419643053812955L22.713623307379624,19.419643053812955Q22.493623307379625,19.359643053812956,22.303623307379628,19.209643053812957L22.303623307379628,19.209643053812957L22.83362330737962,18.439643053812954L22.83362330737962,18.439643053812954Q22.963623307379624,18.619643053812954,23.143623307379624,18.719643053812955L23.143623307379624,18.719643053812955L23.143623307379624,18.719643053812955Q23.313623307379626,18.819643053812957,23.52362330737962,18.819643053812957L23.52362330737962,18.819643053812957L23.52362330737962,18.819643053812957Q23.743623307379618,18.819643053812957,23.903623307379622,18.709643053812957L23.903623307379622,18.709643053812957L23.903623307379622,18.709643053812957Q24.063623307379626,18.589643053812953,24.16362330737962,18.409643053812953L24.16362330737962,18.409643053812953L24.16362330737962,18.409643053812953Q24.27362330737962,18.219643053812955,24.343623307379627,17.999643053812957L24.343623307379627,17.999643053812957L24.343623307379627,17.999643053812957Q24.41362330737962,17.769643053812953,24.44362330737962,17.529643053812954L24.44362330737962,17.529643053812954L24.44362330737962,17.529643053812954Q24.473623307379622,17.299643053812954,24.493623307379618,17.089643053812953L24.493623307379618,17.089643053812953L24.493623307379618,17.089643053812953Q24.503623307379623,16.869643053812954,24.503623307379623,16.719643053812955L24.503623307379623,16.719643053812955L24.503623307379623,16.719643053812955Q24.503623307379623,16.429643053812956,24.423623307379625,16.099643053812954L24.423623307379625,16.099643053812954L24.423623307379625,16.099643053812954Q24.343623307379627,15.759643053812955,24.183623307379623,15.469643053812955L24.183623307379623,15.469643053812955L24.183623307379623,15.469643053812955Q24.02362330737962,15.179643053812956,23.77362330737962,14.979643053812953L23.77362330737962,14.979643053812953L23.77362330737962,14.979643053812953Q23.52362330737962,14.789643053812956,23.173623307379625,14.789643053812956L23.173623307379625,14.789643053812956L23.173623307379625,14.789643053812956Q22.933623307379623,14.789643053812956,22.76362330737962,14.909643053812953L22.76362330737962,14.909643053812953L22.76362330737962,14.909643053812953Q22.593623307379627,15.029643053812954,22.483623307379627,15.219643053812955L22.483623307379627,15.219643053812955L22.483623307379627,15.219643053812955Q22.37362330737962,15.409643053812953,22.303623307379628,15.659643053812953L22.303623307379628,15.659643053812953L22.303623307379628,15.659643053812953Q22.243623307379618,15.909643053812953,22.213623307379624,16.159643053812953L22.213623307379624,16.159643053812953L22.213623307379624,16.159643053812953Q22.183623307379623,16.409643053812953,22.173623307379625,16.649643053812955L22.173623307379625,16.649643053812955L22.173623307379625,16.649643053812955Q22.16362330737962,16.879643053812956,22.16362330737962,17.059643053812955L22.16362330737962,17.059643053812955L22.16362330737962,22.309643053812955L20.923623307379625,22.739643053812955L20.923623307379625,15.069643053812957L20.923623307379625,15.069643053812957Q20.923623307379625,14.929643053812956,20.853623307379625,14.819643053812957L20.853623307379625,14.819643053812957L20.853623307379625,14.819643053812957Q20.783623307379624,14.699643053812952,20.643623307379624,14.699643053812952L20.643623307379624,14.699643053812952L20.643623307379624,14.699643053812952Q20.473623307379622,14.699643053812952,20.33362330737962,14.829643053812955L20.33362330737962,14.829643053812955L20.33362330737962,14.829643053812955Q20.19362330737962,14.959643053812957,20.113623307379623,15.079643053812955L20.113623307379623,15.079643053812955L19.923623307379625,14.869643053812954L19.923623307379625,14.869643053812954Q20.003623307379623,14.699643053812952,20.13362330737962,14.539643053812956L20.13362330737962,14.539643053812956L20.13362330737962,14.539643053812956Q20.26362330737962,14.379643053812956,20.423623307379625,14.259643053812955L20.423623307379625,14.259643053812955L20.423623307379625,14.259643053812955Q20.58362330737962,14.139643053812957,20.77362330737962,14.059643053812955L20.77362330737962,14.059643053812955L20.77362330737962,14.059643053812955Q20.95362330737962,13.989643053812955,21.16362330737962,13.989643053812955L21.16362330737962,13.989643053812955L21.16362330737962,13.989643053812955Q21.45362330737962,13.989643053812955,21.643623307379624,14.079643053812955L21.643623307379624,14.079643053812955L21.643623307379624,14.079643053812955Q21.83362330737962,14.159643053812953,21.95362330737962,14.319643053812957L21.95362330737962,14.319643053812957L21.95362330737962,14.319643053812957Q22.073623307379624,14.479643053812953,22.12362330737962,14.699643053812952L22.12362330737962,14.699643053812952L22.12362330737962,14.699643053812952Q22.16362330737962,14.919643053812955,22.16362330737962,15.179643053812956L22.16362330737962,15.179643053812956L22.16362330737962,15.179643053812956Q22.27362330737962,14.969643053812955,22.423623307379625,14.759643053812955L22.423623307379625,14.759643053812955L22.423623307379625,14.759643053812955Q22.573623307379624,14.539643053812956,22.753623307379623,14.369643053812954L22.753623307379623,14.369643053812954L22.753623307379623,14.369643053812954Q22.94362330737962,14.209643053812954,23.163623307379627,14.099643053812954L23.163623307379627,14.099643053812954L23.163623307379627,14.099643053812954Q23.38362330737962,13.989643053812955,23.653623307379622,13.989643053812955L23.653623307379622,13.989643053812955L23.653623307379622,13.989643053812955Q24.12362330737962,13.989643053812955,24.483623307379627,14.199643053812956L24.483623307379627,14.199643053812956L24.483623307379627,14.199643053812956Q24.853623307379618,14.409643053812953,25.103623307379618,14.749643053812957L25.103623307379618,14.749643053812957L25.103623307379618,14.749643053812957Q25.353623307379618,15.089643053812953,25.483623307379627,15.509643053812955L25.483623307379627,15.509643053812955L25.483623307379627,15.509643053812955Q25.613623307379623,15.929643053812956,25.613623307379623,16.369643053812954L25.613623307379623,16.369643053812954L25.613623307379623,16.369643053812954Q25.613623307379623,16.909643053812953,25.453623307379626,17.469643053812955L25.453623307379626,17.469643053812955L25.453623307379626,17.469643053812955Q25.30362330737962,18.019643053812953,25.003623307379623,18.469643053812955L25.003623307379623,18.469643053812955L25.003623307379623,18.469643053812955Q24.69362330737962,18.919643053812955,24.233623307379627,19.209643053812957L24.233623307379627,19.209643053812957L24.233623307379627,19.209643053812957Q23.783623307379624,19.489643053812955,23.173623307379625,19.489643053812955ZM31.283623307379624,13.899643053812955L31.283623307379624,18.809643053812955L31.283623307379624,18.809643053812955Q31.283623307379624,19.299643053812954,31.153623307379622,19.769643053812953L31.153623307379622,19.769643053812953L31.153623307379622,19.769643053812953Q31.033623307379624,20.229643053812953,30.813623307379626,20.649643053812955L30.813623307379626,20.649643053812955L30.813623307379626,20.649643053812955Q30.603623307379618,21.059643053812955,30.30362330737962,21.409643053812953L30.30362330737962,21.409643053812953L30.30362330737962,21.409643053812953Q30.01362330737962,21.749643053812957,29.673623307379625,21.999643053812957L29.673623307379625,21.999643053812957L29.673623307379625,21.999643053812957Q29.323623307379624,22.249643053812957,28.94362330737962,22.389643053812954L28.94362330737962,22.389643053812954L28.94362330737962,22.389643053812954Q28.55362330737962,22.529643053812954,28.173623307379625,22.529643053812954L28.173623307379625,22.529643053812954L28.173623307379625,22.529643053812954Q27.87362330737962,22.529643053812954,27.613623307379623,22.429643053812956L27.613623307379623,22.429643053812956L27.613623307379623,22.429643053812956Q27.353623307379618,22.329643053812955,27.12362330737962,22.169643053812955L27.12362330737962,22.169643053812955L27.88362330737962,21.199643053812956L27.88362330737962,21.199643053812956Q27.993623307379618,21.279643053812954,28.113623307379623,21.369643053812954L28.113623307379623,21.369643053812954L28.113623307379623,21.369643053812954Q28.243623307379618,21.459643053812957,28.38362330737962,21.529643053812954L28.38362330737962,21.529643053812954L28.38362330737962,21.529643053812954Q28.51362330737962,21.599643053812954,28.66362330737962,21.649643053812955L28.66362330737962,21.649643053812955L28.66362330737962,21.649643053812955Q28.813623307379626,21.689643053812954,28.953623307379626,21.689643053812954L28.953623307379626,21.689643053812954L28.953623307379626,21.689643053812954Q29.213623307379624,21.689643053812954,29.393623307379624,21.529643053812954L29.393623307379624,21.529643053812954L29.393623307379624,21.529643053812954Q29.573623307379624,21.379643053812956,29.69362330737962,21.129643053812956L29.69362330737962,21.129643053812956L29.69362330737962,21.129643053812956Q29.813623307379626,20.879643053812956,29.87362330737962,20.569643053812957L29.87362330737962,20.569643053812957L29.87362330737962,20.569643053812957Q29.94362330737962,20.259643053812955,29.973623307379622,19.949643053812956L29.973623307379622,19.949643053812956L29.973623307379622,19.949643053812956Q30.003623307379623,19.649643053812955,30.01362330737962,19.369643053812954L30.01362330737962,19.369643053812954L30.01362330737962,19.369643053812954Q30.02362330737962,19.089643053812953,30.02362330737962,18.909643053812953L30.02362330737962,18.909643053812953L30.02362330737962,16.159643053812953L30.02362330737962,16.159643053812953Q29.963623307379624,16.399643053812955,29.87362330737962,16.739643053812955L29.87362330737962,16.739643053812955L29.87362330737962,16.739643053812955Q29.793623307379622,17.079643053812955,29.653623307379622,17.449643053812952L29.653623307379622,17.449643053812952L29.653623307379622,17.449643053812952Q29.52362330737962,17.819643053812957,29.353623307379618,18.189643053812954L29.353623307379618,18.189643053812954L29.353623307379618,18.189643053812954Q29.183623307379623,18.549643053812954,28.963623307379624,18.849643053812954L28.963623307379624,18.849643053812954L28.963623307379624,18.849643053812954Q28.753623307379623,19.139643053812957,28.483623307379627,19.319643053812957L28.483623307379627,19.319643053812957L28.483623307379627,19.319643053812957Q28.223623307379622,19.499643053812957,27.91362330737962,19.499643053812957L27.91362330737962,19.499643053812957L27.91362330737962,19.499643053812957Q27.603623307379618,19.499643053812957,27.44362330737962,19.359643053812956L27.44362330737962,19.359643053812956L27.44362330737962,19.359643053812956Q27.283623307379624,19.219643053812955,27.203623307379626,19.009643053812955L27.203623307379626,19.009643053812955L27.203623307379626,19.009643053812955Q27.13362330737962,18.789643053812956,27.13362330737962,18.529643053812954L27.13362330737962,18.529643053812954L27.13362330737962,18.529643053812954Q27.12362330737962,18.269643053812953,27.12362330737962,18.029643053812954L27.12362330737962,18.029643053812954L27.12362330737962,15.079643053812955L27.12362330737962,15.079643053812955Q27.12362330737962,14.959643053812957,27.05362330737962,14.839643053812953L27.05362330737962,14.839643053812953L27.05362330737962,14.839643053812953Q26.983623307379627,14.719643053812955,26.843623307379627,14.719643053812955L26.843623307379627,14.719643053812955L26.843623307379627,14.719643053812955Q26.673623307379625,14.719643053812955,26.533623307379624,14.839643053812953L26.533623307379624,14.839643053812953L26.533623307379624,14.839643053812953Q26.393623307379624,14.969643053812955,26.313623307379626,15.089643053812953L26.313623307379626,15.089643053812953L26.12362330737962,14.889643053812957L26.12362330737962,14.889643053812957Q26.203623307379626,14.719643053812955,26.33362330737962,14.559643053812955L26.33362330737962,14.559643053812955L26.33362330737962,14.559643053812955Q26.463623307379624,14.399643053812955,26.62362330737962,14.269643053812956L26.62362330737962,14.269643053812956L26.62362330737962,14.269643053812956Q26.783623307379624,14.149643053812955,26.973623307379622,14.079643053812955L26.973623307379622,14.079643053812955L26.973623307379622,14.079643053812955Q27.153623307379622,14.009643053812955,27.363623307379623,14.009643053812955L27.363623307379623,14.009643053812955L27.363623307379623,14.009643053812955Q27.893623307379624,14.009643053812955,28.13362330737962,14.299643053812954L28.13362330737962,14.299643053812954L28.13362330737962,14.299643053812954Q28.363623307379623,14.599643053812954,28.363623307379623,15.109643053812956L28.363623307379623,15.109643053812956L28.363623307379623,17.919643053812955L28.363623307379623,17.919643053812955Q28.363623307379623,17.959643053812957,28.37362330737962,18.029643053812954L28.37362330737962,18.029643053812954L28.37362330737962,18.029643053812954Q28.37362330737962,18.089643053812953,28.393623307379624,18.149643053812955L28.393623307379624,18.149643053812955L28.393623307379624,18.149643053812955Q28.41362330737962,18.209643053812957,28.453623307379626,18.259643053812955L28.453623307379626,18.259643053812955L28.453623307379626,18.259643053812955Q28.493623307379618,18.299643053812954,28.563623307379626,18.299643053812954L28.563623307379626,18.299643053812954L28.563623307379626,18.299643053812954Q28.69362330737962,18.299643053812954,28.83362330737962,18.149643053812955L28.83362330737962,18.149643053812955L28.83362330737962,18.149643053812955Q28.963623307379624,17.999643053812957,29.093623307379627,17.799643053812954L29.093623307379627,17.799643053812954L29.093623307379627,17.799643053812954Q29.213623307379624,17.599643053812954,29.30362330737962,17.399643053812955L29.30362330737962,17.399643053812955L29.30362330737962,17.399643053812955Q29.393623307379624,17.209643053812957,29.433623307379623,17.109643053812956L29.433623307379623,17.109643053812956L29.433623307379623,17.109643053812956Q29.55362330737962,16.819643053812957,29.653623307379622,16.469643053812955L29.653623307379622,16.469643053812955L29.653623307379622,16.469643053812955Q29.743623307379618,16.119643053812954,29.823623307379624,15.749643053812957L29.823623307379624,15.749643053812957L29.823623307379624,15.749643053812957Q29.893623307379624,15.389643053812957,29.94362330737962,15.029643053812954L29.94362330737962,15.029643053812954L29.94362330737962,15.029643053812954Q29.993623307379618,14.669643053812955,30.02362330737962,14.339643053812953L30.02362330737962,14.339643053812953L31.283623307379624,13.899643053812955ZM36.363623307379626,18.439643053812954L36.53362330737963,18.619643053812954L36.53362330737963,18.619643053812954Q36.40362330737962,18.809643053812955,36.223623307379626,18.969643053812955L36.223623307379626,18.969643053812955L36.223623307379626,18.969643053812955Q36.053623307379624,19.119643053812954,35.833623307379625,19.229643053812953L35.833623307379625,19.229643053812953L35.833623307379625,19.229643053812953Q35.62362330737962,19.339643053812953,35.39362330737963,19.399643053812955L35.39362330737963,19.399643053812955L35.39362330737963,19.399643053812955Q35.16362330737962,19.459643053812957,34.93362330737962,19.459643053812957L34.93362330737962,19.459643053812957L34.93362330737962,19.459643053812957Q34.63362330737962,19.459643053812957,34.42362330737963,19.349643053812954L34.42362330737963,19.349643053812954L34.42362330737963,19.349643053812954Q34.20362330737963,19.239643053812955,34.06362330737963,19.049643053812954L34.06362330737963,19.049643053812954L34.06362330737963,19.049643053812954Q33.93362330737962,18.869643053812954,33.863623307379626,18.619643053812954L33.863623307379626,18.619643053812954L33.863623307379626,18.619643053812954Q33.803623307379624,18.369643053812954,33.803623307379624,18.109643053812956L33.803623307379624,18.109643053812956L33.803623307379624,18.109643053812956Q33.803623307379624,17.759643053812955,33.90362330737962,17.359643053812956L33.90362330737962,17.359643053812956L33.90362330737962,17.359643053812956Q34.01362330737962,16.959643053812957,34.193623307379625,16.569643053812957L34.193623307379625,16.569643053812957L34.193623307379625,16.569643053812957Q34.37362330737962,16.179643053812956,34.60362330737962,15.849643053812954L34.60362330737962,15.849643053812954L34.60362330737962,15.849643053812954Q34.84362330737963,15.509643053812955,35.10362330737962,15.289643053812956L35.10362330737962,15.289643053812956L35.10362330737962,15.289643053812956Q34.863623307379626,15.449643053812952,34.57362330737962,15.539643053812956L34.57362330737962,15.539643053812956L34.57362330737962,15.539643053812956Q34.29362330737962,15.629643053812956,34.00362330737963,15.629643053812956L34.00362330737963,15.629643053812956L34.00362330737963,15.629643053812956Q33.78362330737963,15.629643053812956,33.63362330737962,15.589643053812953L33.63362330737962,15.589643053812953L33.63362330737962,15.589643053812953Q33.473623307379626,15.559643053812955,33.28362330737963,15.459643053812957L33.28362330737963,15.459643053812957L32.57362330737962,16.949643053812956L32.27362330737962,16.829643053812955L33.01362330737962,15.319643053812957L33.01362330737962,15.319643053812957Q32.90362330737962,15.239643053812955,32.76362330737962,15.109643053812956L32.76362330737962,15.109643053812956L32.76362330737962,15.109643053812956Q32.63362330737962,14.979643053812953,32.57362330737962,14.859643053812956L32.57362330737962,14.859643053812956L33.52362330737962,13.789643053812956L33.52362330737962,13.789643053812956Q33.583623307379625,13.979643053812953,33.693623307379625,14.169643053812955L33.693623307379625,14.169643053812955L33.693623307379625,14.169643053812955Q33.803623307379624,14.359643053812956,33.943623307379625,14.499643053812957L33.943623307379625,14.499643053812957L33.943623307379625,14.499643053812957Q34.09362330737963,14.649643053812955,34.27362330737962,14.749643053812957L34.27362330737962,14.749643053812957L34.27362330737962,14.749643053812957Q34.45362330737963,14.839643053812953,34.67362330737963,14.839643053812953L34.67362330737963,14.839643053812953L34.67362330737963,14.839643053812953Q35.03362330737963,14.839643053812953,35.37362330737962,14.709643053812957L35.37362330737962,14.709643053812957L35.37362330737962,14.709643053812957Q35.71362330737962,14.569643053812957,36.01362330737962,14.379643053812956L36.01362330737962,14.379643053812956L36.193623307379625,14.569643053812957L36.193623307379625,14.569643053812957Q35.93362330737962,14.809643053812955,35.67362330737963,15.099643053812954L35.67362330737963,15.099643053812954L35.67362330737963,15.099643053812954Q35.40362330737962,15.389643053812957,35.193623307379625,15.719643053812955L35.193623307379625,15.719643053812955L35.193623307379625,15.719643053812955Q34.98362330737963,16.039643053812956,34.85362330737962,16.409643053812953L34.85362330737962,16.409643053812953L34.85362330737962,16.409643053812953Q34.723623307379626,16.769643053812953,34.723623307379626,17.139643053812957L34.723623307379626,17.139643053812957L34.723623307379626,17.139643053812957Q34.723623307379626,17.349643053812954,34.78362330737963,17.609643053812956L34.78362330737963,17.609643053812956L34.78362330737963,17.609643053812956Q34.84362330737963,17.879643053812956,34.96362330737962,18.109643053812956L34.96362330737962,18.109643053812956L34.96362330737962,18.109643053812956Q35.083623307379625,18.349643053812954,35.27362330737962,18.509643053812955L35.27362330737962,18.509643053812955L35.27362330737962,18.509643053812955Q35.45362330737963,18.669643053812955,35.71362330737962,18.669643053812955L35.71362330737962,18.669643053812955L35.71362330737962,18.669643053812955Q35.89362330737963,18.669643053812955,36.06362330737963,18.599643053812954L36.06362330737963,18.599643053812954L36.06362330737963,18.599643053812954Q36.223623307379626,18.539643053812956,36.363623307379626,18.439643053812954L36.363623307379626,18.439643053812954ZM37.45362330737963,10.939643053812954L38.89362330737963,10.449643053812956L38.53362330737963,12.939643053812954L37.863623307379626,13.149643053812955L37.45362330737963,10.939643053812954ZM39.65362330737963,18.359643053812956L39.833623307379625,18.569643053812957L39.833623307379625,18.569643053812957Q39.683623307379634,18.899643053812955,39.473623307379626,19.079643053812955L39.473623307379626,19.079643053812955L39.473623307379626,19.079643053812955Q39.26362330737962,19.259643053812955,39.07362330737962,19.339643053812953L39.07362330737962,19.339643053812953L39.07362330737962,19.339643053812953Q38.843623307379616,19.429643053812956,38.613623307379626,19.449643053812952L38.613623307379626,19.449643053812952L38.613623307379626,19.449643053812952Q38.31362330737963,19.449643053812952,38.113623307379626,19.349643053812954L38.113623307379626,19.349643053812954L38.113623307379626,19.349643053812954Q37.91362330737962,19.259643053812955,37.803623307379624,19.099643053812954L37.803623307379624,19.099643053812954L37.803623307379624,19.099643053812954Q37.68362330737962,18.939643053812954,37.64362330737963,18.739643053812955L37.64362330737963,18.739643053812955L37.64362330737963,18.739643053812955Q37.59362330737963,18.549643053812954,37.59362330737963,18.339643053812953L37.59362330737963,18.339643053812953L37.59362330737963,14.509643053812955L38.85362330737962,14.079643053812955L38.85362330737962,18.369643053812954L38.85362330737962,18.369643053812954Q38.85362330737962,18.539643053812956,38.92362330737963,18.629643053812956L38.92362330737963,18.629643053812956L38.92362330737963,18.629643053812956Q39.00362330737963,18.729643053812953,39.12362330737962,18.729643053812953L39.12362330737962,18.729643053812953L39.12362330737962,18.729643053812953Q39.24362330737962,18.739643053812955,39.38362330737964,18.649643053812955L39.38362330737964,18.649643053812955L39.38362330737964,18.649643053812955Q39.52362330737962,18.559643053812955,39.65362330737963,18.359643053812956L39.65362330737963,18.359643053812956Z" transform="matrix(0.533068 0 0 0.533068 8.75198 1.18551)" style="fill:white;"/></g><!----><g data-v-423bf9ae="" id="2dd407bf-11b2-408c-a4dc-68c794b419f9" transform="matrix(1.0778434250343163,0,0,1.0778434250343163,23.61589981288362,-6.486518956634399)" stroke="none" fill="black"><path d="M-45.1951871293423,114.4846847286949a38.477,38.477,0,0,0,-20.36100000000002,5.798000000000002l-0.5439999999999827,0.3380000000000223c-11.105000000000018,7.149000000000001,-17.741000000000014,19.30499999999998,-17.741000000000014,32.510999999999996c0,16.038999999999987,9.653999999999996,30.170999999999992,24.596000000000004,36.00300000000004l1.3940000000000055,0.5439999999999827l-1.2700000000000102,0.79200000000003a39.883,39.883,0,0,1,-17.029000000000025,5.817000000000007a38.53,38.53,0,0,0,11.362000000000023,1.6970000000000027c7.444999999999993,0,14.670000000000016,-2.1200000000000045,20.89500000000001,-6.129000000000019l0.17099999999999227,-0.11000000000001364l0.20400000000000773,-0.009000000000014552c20.730999999999966,-0.8709999999999809,36.971999999999994,-17.82800000000003,36.971999999999994,-38.60400000000001c-0.001999999999997115,-21.311000000000007,-17.337999999999994,-38.648000000000025,-38.64899999999999,-38.648000000000025ZM-71.53718712934231,137.5676847286949l1.0609999999999786,-1.0609999999999786l8.670000000000016,8.668999999999983l-8.670000000000016,8.67100000000005l-1.0609999999999786,-1.0610000000000355l7.609000000000009,-7.610000000000014l-7.609000000000009,-7.608000000000004ZM-71.00718712934231,162.58268472869494h3.1929999999999836v1.5h-3.1929999999999836v-1.5ZM-61.15918712934233,169.66068472869492h-9.847000000000008v-1.5h9.847000000000008v1.5ZM-61.15918712934233,158.50268472869493h-9.847000000000008v-1.5h9.847000000000008v1.5ZM-57.932187129342324,164.08268472869494h-2.581999999999965v-1.5h2.581999999999965v1.5ZM-29.085187129342316,140.28568472869492h1.9159999999999968v1.5h-1.9159999999999968v-1.5ZM-29.085187129342316,148.56768472869493h1.9159999999999968v1.5h-1.9159999999999968v-1.5ZM-45.83918712934231,140.28568472869492h10.88300000000001v1.5h-10.88300000000001v-1.5ZM-31.239187129342312,144.4256847286949v1.5000000000000284h-10.881v-1.5000000000000284h10.881ZM-49.90818712934232,144.4256847286949h1.9170000000000016v1.5000000000000284h-1.9170000000000016v-1.5000000000000284ZM-40.36718712934233,157.00268472869493v1.5h-14.663999999999987v-1.5h14.663999999999987ZM-57.69518712934233,140.28568472869492h7.309000000000026v1.5h-7.309000000000026v-1.5ZM-57.69518712934233,144.4256847286949h2.3710000000000093v1.5000000000000284h-2.3710000000000093v-1.5000000000000284ZM-57.69518712934233,148.56768472869493h7.309000000000026v1.5h-7.309000000000026v-1.5ZM-47.53218712934232,169.66068472869492h-7.498999999999995v-1.5h7.498999999999995v1.5ZM-35.35918712934232,164.08268472869494h-14.661999999999978v-1.5h14.661999999999978v1.5ZM-34.9561871293423,150.06768472869493h-10.88300000000001v-1.5h10.88300000000001v1.5ZM-29.875187129342308,169.66068472869492h-2.5819999999999936v-1.5h2.5819999999999936v1.5ZM-29.875187129342308,158.50268472869493h-2.5819999999999936v-1.5h2.5819999999999936v1.5ZM-19.382187129342327,169.66068472869492h-3.192999999999998v-1.5h3.1920000000000073v1.5ZM-19.382187129342327,164.08268472869494h-9.846000000000004v-1.5h9.846000000000004v1.5ZM-19.382187129342327,158.50268472869493h-3.192999999999998v-1.5h3.1920000000000073v1.5ZM-19.382187129342327,150.06768472869493h-2.3689999999999998v-1.5h2.3689999999999998v1.5ZM-19.382187129342327,145.9256847286949h-7.307999999999993v-1.5h7.3079999999999785v1.5ZM-19.382187129342327,141.78568472869492h-2.3689999999999998v-1.5h2.3689999999999998v1.5Z" transform="matrix(0.533068 0 0 0.533068 25.3647 46.3146)" style="fill:white;"/></g><!----><g data-v-423bf9ae="" id="39009667-87a1-42be-a337-49b1348f9a75" fill="black" transform="matrix(0.46902104068154876,0,0,0.46902104068154876,19.756018446025003,203.802555888061)"><path d="M44.53624274661615,12.244890370958274L47.75624274661618,12.244890370958274L49.99624274661616,15.804890370958276L51.24624274661616,15.804890370958276L48.806242746616164,12.064890370958267C49.846242746616156,11.824890370958258,51.04624274661617,11.224890370958235,51.04624274661617,9.434890370958271C51.04624274661617,7.6748903709582805,49.836242746616165,6.534890370958237,47.92624274661617,6.534890370958237L43.48624274661617,6.534890370958237L43.48624274661617,15.804890370958276L44.53624274661615,15.804890370958276ZM44.53624274661615,7.534890370958237L47.806242746616164,7.534890370958237C49.116242746616166,7.534890370958237,49.99624274661616,8.254890370958265,49.99624274661616,9.434890370958271C49.99624274661616,10.87489037095827,48.73624274661617,11.254890370958265,47.74624274661616,11.254890370958265L44.53624274661615,11.254890370958265ZM62.586242746616165,14.964890370958244C61.17624274661617,14.964890370958244,60.26624274661617,13.974890370958235,60.106242746616175,12.724890370958235L65.97624274661618,12.724890370958235L65.97624274661618,12.304890370958276C65.97624274661618,10.304890370958276,64.64624274661617,8.694890370958262,62.50624274661618,8.694890370958262C60.356242746616175,8.694890370958262,59.02624274661616,10.304890370958276,59.02624274661616,12.304890370958276C59.02624274661616,14.304890370958276,60.42624274661617,15.91489037095829,62.576242746616174,15.91489037095829C64.23624274661617,15.91489037095829,65.27624274661616,15.044890370958285,65.76624274661617,13.784890370958237L64.61624274661617,13.784890370958237C64.23624274661617,14.484890370958226,63.56624274661618,14.964890370958244,62.586242746616165,14.964890370958244ZM62.50624274661618,9.644890370958251C63.846242746616156,9.644890370958251,64.68624274661616,10.554890370958276,64.88624274661618,11.744890370958274L60.12624274661616,11.744890370958274C60.31624274661618,10.554890370958276,61.15624274661616,9.644890370958251,62.50624274661618,9.644890370958251ZM76.69624274661618,8.694890370958262C74.89624274661617,8.694890370958262,73.95624274661617,9.434890370958271,73.95624274661617,10.694890370958262C73.95624274661617,13.254890370958265,78.61624274661617,12.16489037095829,78.61624274661617,13.91489037095829C78.61624274661617,14.864890370958278,77.39624274661617,15.024890370958246,76.82624274661617,15.024890370958246C75.46624274661616,15.024890370958246,74.93624274661616,14.324890370958258,74.86624274661617,13.60489037095823L73.77624274661616,13.60489037095823C73.84624274661616,14.834890370958249,74.86624274661617,15.91489037095829,76.80624274661616,15.91489037095829C78.54624274661617,15.91489037095829,79.66624274661618,15.17489037095828,79.66624274661618,13.814890370958267C79.66624274661618,11.184890370958271,75.00624274661618,12.274890370958246,75.00624274661618,10.59489037095824C75.00624274661618,9.91489037095829,75.57624274661617,9.584890370958249,76.66624274661618,9.584890370958249C77.84624274661616,9.584890370958249,78.29624274661617,10.074890370958258,78.37624274661619,10.684890370958271L79.44624274661618,10.684890370958271C79.31624274661618,9.654890370958242,78.54624274661617,8.694890370958262,76.69624274661618,8.694890370958262ZM91.13624274661618,14.964890370958244C89.71624274661616,14.964890370958244,88.80624274661616,13.974890370958235,88.65624274661616,12.724890370958235L94.51624274661617,12.724890370958235L94.51624274661617,12.304890370958276C94.51624274661617,10.304890370958276,93.18624274661616,8.694890370958262,91.04624274661617,8.694890370958262C88.90624274661616,8.694890370958262,87.57624274661617,10.304890370958276,87.57624274661617,12.304890370958276C87.57624274661617,14.304890370958276,88.97624274661615,15.91489037095829,91.11624274661617,15.91489037095829C92.78624274661618,15.91489037095829,93.81624274661618,15.044890370958285,94.30624274661616,13.784890370958237L93.16624274661618,13.784890370958237C92.78624274661618,14.484890370958226,92.11624274661617,14.964890370958244,91.13624274661618,14.964890370958244ZM91.04624274661617,9.644890370958251C92.39624274661617,9.644890370958251,93.23624274661617,10.554890370958276,93.42624274661617,11.744890370958274L88.66624274661618,11.744890370958274C88.86624274661617,10.554890370958276,89.70624274661617,9.644890370958251,91.04624274661617,9.644890370958251ZM105.76624274661617,8.694890370958262C103.71624274661619,8.694890370958262,102.37624274661616,10.304890370958276,102.37624274661616,12.304890370958276C102.37624274661616,14.304890370958276,103.71624274661619,15.91489037095829,105.76624274661617,15.91489037095829C106.92624274661617,15.91489037095829,107.74624274661619,15.444890370958262,108.26624274661617,14.684890370958271L108.26624274661617,15.804890370958276L109.31624274661618,15.804890370958276L109.31624274661618,8.804890370958276L108.26624274661617,8.804890370958276L108.26624274661617,9.934890370958271C107.74624274661619,9.184890370958271,106.92624274661617,8.694890370958262,105.76624274661617,8.694890370958262ZM105.90624274661619,14.964890370958244C104.34624274661618,14.964890370958244,103.4262427466162,13.744890370958274,103.4262427466162,12.304890370958276C103.4262427466162,10.864890370958278,104.34624274661618,9.644890370958251,105.90624274661619,9.644890370958251C107.45624274661617,9.644890370958251,108.32624274661617,10.864890370958278,108.32624274661617,12.304890370958276C108.32624274661617,13.744890370958274,107.45624274661617,14.964890370958244,105.90624274661619,14.964890370958244ZM121.76624274661617,8.694890370958262C120.02624274661619,8.694890370958262,119.32624274661617,10.054890370958276,119.18624274661619,10.524890370958246L119.18624274661619,8.804890370958276L118.13624274661618,8.804890370958276L118.13624274661618,15.804890370958276L119.18624274661619,15.804890370958276L119.18624274661619,12.724890370958235C119.18624274661619,11.184890370958271,120.13624274661618,9.744890370958274,121.70624274661617,9.744890370958274L121.8362427466162,9.744890370958274L121.8362427466162,8.694890370958262ZM132.93624274661616,14.964890370958244C131.3862427466162,14.964890370958244,130.4062427466162,13.744890370958274,130.4062427466162,12.304890370958276C130.4062427466162,10.864890370958278,131.3862427466162,9.644890370958251,132.93624274661616,9.644890370958251C133.92624274661617,9.644890370958251,134.6462427466162,10.204890370958253,134.96624274661613,11.004890370958265L136.09624274661613,11.004890370958265C135.69624274661615,9.644890370958251,134.44624274661615,8.694890370958262,132.79624274661617,8.694890370958262C130.69624274661615,8.694890370958262,129.35624274661623,10.304890370958276,129.35624274661623,12.304890370958276C129.35624274661623,14.304890370958276,130.69624274661615,15.91489037095829,132.79624274661617,15.91489037095829C134.44624274661615,15.91489037095829,135.69624274661615,14.964890370958244,136.09624274661613,13.60489037095823L134.96624274661613,13.60489037095823C134.6462427466162,14.404890370958242,133.92624274661617,14.964890370958244,132.93624274661616,14.964890370958244ZM144.4062427466162,6.004890370958265L144.4062427466162,15.804890370958276L145.45624274661614,15.804890370958276L145.45624274661614,11.774890370958246C145.45624274661614,10.514890370958256,146.4062427466162,9.644890370958251,147.56624274661615,9.644890370958251C148.71624274661613,9.644890370958251,149.5262427466162,10.484890370958226,149.5262427466162,11.754890370958265L149.5262427466162,15.804890370958276L150.57624274661615,15.804890370958276L150.57624274661615,11.734890370958226C150.57624274661615,9.744890370958274,149.21624274661613,8.694890370958262,147.7762427466162,8.694890370958262C146.6462427466162,8.694890370958262,145.95624274661614,9.224890370958235,145.45624274661614,9.894890370958251L145.45624274661614,6.004890370958265ZM173.68624274661616,6.534890370958237L172.3762427466162,6.534890370958237L168.43624274661616,15.804890370958276L169.60624274661623,15.804890370958276L170.73624274661623,13.114890370958278L175.32624274661615,13.114890370958278L176.46624274661613,15.804890370958276L177.6262427466161,15.804890370958276ZM171.1462427466162,12.154890370958242L173.03624274661618,7.624890370958269L174.92624274661617,12.154890370958242ZM188.0162427466161,8.694890370958262C186.20624274661614,8.694890370958262,185.2662427466161,9.434890370958271,185.2662427466161,10.694890370958262C185.2662427466161,13.254890370958265,189.92624274661617,12.16489037095829,189.92624274661617,13.91489037095829C189.92624274661617,14.864890370958278,188.71624274661613,15.024890370958246,188.1362427466161,15.024890370958246C186.77624274661608,15.024890370958246,186.2462427466161,14.324890370958258,186.17624274661617,13.60489037095823L185.08624274661614,13.60489037095823C185.1562427466162,14.834890370958249,186.17624274661617,15.91489037095829,188.1262427466161,15.91489037095829C189.85624274661612,15.91489037095829,190.97624274661612,15.17489037095828,190.97624274661612,13.814890370958267C190.97624274661612,11.184890370958271,186.31624274661615,12.274890370958246,186.31624274661615,10.59489037095824C186.31624274661615,9.91489037095829,186.89624274661608,9.584890370958249,187.9862427466161,9.584890370958249C189.1562427466162,9.584890370958249,189.60624274661612,10.074890370958258,189.69624274661615,10.684890370958271L190.7562427466161,10.684890370958271C190.6262427466161,9.654890370958242,189.85624274661612,8.694890370958262,188.0162427466161,8.694890370958262ZM201.7562427466161,8.694890370958262C199.95624274661614,8.694890370958262,199.0162427466161,9.434890370958271,199.0162427466161,10.694890370958262C199.0162427466161,13.254890370958265,203.67624274661617,12.16489037095829,203.67624274661617,13.91489037095829C203.67624274661617,14.864890370958278,202.45624274661614,15.024890370958246,201.8862427466161,15.024890370958246C200.52624274661608,15.024890370958246,199.9962427466161,14.324890370958258,199.92624274661617,13.60489037095823L198.83624274661614,13.60489037095823C198.9062427466162,14.834890370958249,199.92624274661617,15.91489037095829,201.8762427466161,15.91489037095829C203.60624274661612,15.91489037095829,204.72624274661612,15.17489037095828,204.72624274661612,13.814890370958267C204.72624274661612,11.184890370958271,200.06624274661615,12.274890370958246,200.06624274661615,10.59489037095824C200.06624274661615,9.91489037095829,200.6362427466161,9.584890370958249,201.7362427466161,9.584890370958249C202.9062427466162,9.584890370958249,203.35624274661612,10.074890370958258,203.43624274661616,10.684890370958271L204.5062427466161,10.684890370958271C204.3762427466161,9.654890370958242,203.60624274661612,8.694890370958262,201.7562427466161,8.694890370958262ZM213.07624274661615,15.804890370958276L214.1262427466161,15.804890370958276L214.1262427466161,8.804890370958276L213.07624274661615,8.804890370958276ZM213.02624274661608,6.254890370958265L213.02624274661608,7.624890370958269L214.16624274661618,7.624890370958269L214.16624274661618,6.254890370958265ZM225.3762427466161,8.694890370958262C223.57624274661615,8.694890370958262,222.6362427466161,9.434890370958271,222.6362427466161,10.694890370958262C222.6362427466161,13.254890370958265,227.29624274661617,12.16489037095829,227.29624274661617,13.91489037095829C227.29624274661617,14.864890370958278,226.07624274661615,15.024890370958246,225.5062427466161,15.024890370958246C224.14624274661608,15.024890370958246,223.6162427466161,14.324890370958258,223.54624274661617,13.60489037095823L222.45624274661614,13.60489037095823C222.52624274661608,14.834890370958249,223.54624274661617,15.91489037095829,225.4862427466161,15.91489037095829C227.22624274661612,15.91489037095829,228.34624274661613,15.17489037095828,228.34624274661613,13.814890370958267C228.34624274661613,11.184890370958271,223.68624274661616,12.274890370958246,223.68624274661616,10.59489037095824C223.68624274661616,9.91489037095829,224.2562427466161,9.584890370958249,225.34624274661613,9.584890370958249C226.52624274661608,9.584890370958249,226.97624274661612,10.074890370958258,227.05624274661616,10.684890370958271L228.1262427466161,10.684890370958271C227.9962427466161,9.654890370958242,227.22624274661612,8.694890370958262,225.3762427466161,8.694890370958262ZM238.4962427466161,15.804890370958276L238.4962427466161,9.724890370958235L240.10624274661612,9.724890370958235L240.10624274661612,8.804890370958276L238.4962427466161,8.804890370958276L238.4962427466161,6.294890370958285L237.44624274661615,6.294890370958285L237.44624274661615,8.804890370958276L236.0162427466161,8.804890370958276L236.0162427466161,9.724890370958235L237.44624274661615,9.724890370958235L237.44624274661615,15.804890370958276ZM251.06624274661615,8.694890370958262C249.02624274661608,8.694890370958262,247.67624274661617,10.304890370958276,247.67624274661617,12.304890370958276C247.67624274661617,14.304890370958276,249.02624274661608,15.91489037095829,251.06624274661615,15.91489037095829C252.22624274661612,15.91489037095829,253.05624274661616,15.444890370958262,253.57624274661615,14.684890370958271L253.57624274661615,15.804890370958276L254.6262427466161,15.804890370958276L254.6262427466161,8.804890370958276L253.57624274661615,8.804890370958276L253.57624274661615,9.934890370958271C253.05624274661616,9.184890370958271,252.22624274661612,8.694890370958262,251.06624274661615,8.694890370958262ZM251.20624274661614,14.964890370958244C249.6562427466162,14.964890370958244,248.72624274661612,13.744890370958274,248.72624274661612,12.304890370958276C248.72624274661612,10.864890370958278,249.6562427466162,9.644890370958251,251.20624274661614,9.644890370958251C252.7662427466161,9.644890370958251,253.6262427466161,10.864890370958278,253.6262427466161,12.304890370958276C253.6262427466161,13.744890370958274,252.7662427466161,14.964890370958244,251.20624274661614,14.964890370958244ZM263.4462427466161,8.804890370958276L263.4462427466161,15.804890370958276L264.4962427466161,15.804890370958276L264.4962427466161,11.774890370958246C264.4962427466161,10.514890370958256,265.4462427466161,9.644890370958251,266.6062427466161,9.644890370958251C267.75624274661607,9.644890370958251,268.5662427466161,10.484890370958226,268.5662427466161,11.754890370958265L268.5662427466161,15.804890370958276L269.6162427466161,15.804890370958276L269.6162427466161,11.734890370958226C269.6162427466161,9.744890370958274,268.25624274661607,8.694890370958262,266.8162427466161,8.694890370958262C265.68624274661613,8.694890370958262,264.9962427466161,9.224890370958235,264.4962427466161,9.894890370958251L264.4962427466161,8.804890370958276ZM280.00624274661607,15.804890370958276L280.00624274661607,9.724890370958235L281.6162427466161,9.724890370958235L281.6162427466161,8.804890370958276L280.00624274661607,8.804890370958276L280.00624274661607,6.294890370958285L278.9562427466161,6.294890370958285L278.9562427466161,8.804890370958276L277.52624274661605,8.804890370958276L277.52624274661605,9.724890370958235L278.9562427466161,9.724890370958235L278.9562427466161,15.804890370958276Z" transform="matrix(0.533068 0 0 0.533068 62.1325 -102.918)" style="fill:white;"/></g></svg>