<svg xmlns="http://www.w3.org/2000/svg" xmlns:xlink="http://www.w3.org/1999/xlink" data-v-423bf9ae="" width="152.83333349890177" height="64.8333374725446"><rect id="backgroundrect" width="100%" height="100%" x="0" y="0" fill="none" stroke="none" class="" style=""/><!----><!----><!----><!----><!----><g class="currentLayer" style=""><title>Layer 1</title><rect id="svgEditorBackground" x="0" y="0" width="148.91729736328125" height="67.50000536441803" style="fill:none;stroke:none;" class=""/><g data-v-423bf9ae="" id="845e254c-d82b-44f5-840e-f19c186645de" fill="black" class=""><path d="M78.43664613276943,23.82435490670393 L78.43664613276943,23.82435490670393 L78.43664613276943,23.82435490670393 Q78.43664613276943,25.2431975329729 77.90758617043183,26.541799258710597 L77.90758617043183,26.541799258710597 L77.90758617043183,26.541799258710597 Q77.354478027988,27.84040098444828 76.46469536405661,28.97066544944221 L76.46469536405661,28.97066544944221 L76.46469536405661,28.97066544944221 Q75.55086452001898,30.100929914436136 74.34845551470629,31.014760758473756 L74.34845551470629,31.014760758473756 L74.34845551470629,31.014760758473756 Q73.14604650939361,31.952639782617666 71.7993484234434,32.60194064548651 L71.7993484234434,32.60194064548651 L71.7993484234434,32.60194064548651 Q70.4526503374932,33.25124150835535 69.05785589133048,33.61196420994918 L69.05785589133048,33.61196420994918 L69.05785589133048,33.61196420994918 Q67.63901326506152,33.996735091649214 66.34041153932382,33.996735091649214 L66.34041153932382,33.996735091649214 L66.34041153932382,33.996735091649214 Q66.22017063879255,33.996735091649214 66.07588155815503,33.996735091649214 L66.07588155815503,33.996735091649214 L66.07588155815503,33.996735091649214 Q65.93159247751751,33.996735091649214 65.81135157698625,33.948638731436716 L65.81135157698625,33.948638731436716 L65.97968883773002,33.05885606750533 L65.97968883773002,33.05885606750533 Q67.06185694251143,32.866470626655314 68.14402504729284,32.505747925061485 L68.14402504729284,32.505747925061485 L68.14402504729284,32.505747925061485 Q69.25024133218052,32.12097704336145 70.23621671653692,31.567868900917603 L70.23621671653692,31.567868900917603 L70.23621671653692,31.567868900917603 Q71.24624028099957,31.014760758473756 72.11197476482471,30.293315355286154 L72.11197476482471,30.293315355286154 L72.11197476482471,30.293315355286154 Q73.00175742875608,29.571869952098552 73.62701011151869,28.658039108060905 L73.62701011151869,28.658039108060905 L73.62701011151869,28.658039108060905 Q74.27631097438753,27.76825644412952 74.63703367598133,26.71013651945438 L74.63703367598133,26.71013651945438 L74.63703367598133,26.71013651945438 Q75.02180455768139,25.652016594779212 75.02180455768139,24.425559409360275 L75.02180455768139,24.425559409360275 L75.02180455768139,24.425559409360275 Q75.02180455768139,23.2712467642601 74.63703367598133,22.28527137990369 L74.63703367598133,22.28527137990369 L74.63703367598133,22.28527137990369 Q74.25226279428128,21.299295995547297 73.57891375130617,20.57785059235968 L73.57891375130617,20.57785059235968 L73.57891375130617,20.57785059235968 Q72.90556470833107,19.85640518917208 71.94363750408093,19.447586127365767 L71.94363750408093,19.447586127365767 L71.94363750408093,19.447586127365767 Q70.98171029983078,19.038767065559455 69.82739765473059,19.038767065559455 L69.82739765473059,19.038767065559455 L69.82739765473059,19.038767065559455 Q68.60094046931167,19.038767065559455 67.32638692368022,19.327345226834495 L67.32638692368022,19.327345226834495 L67.32638692368022,19.327345226834495 Q66.05183337804877,19.591875208003287 64.80132801252358,20.120935170340857 L64.80132801252358,20.120935170340857 L64.80132801252358,20.120935170340857 Q63.5508226469984,20.625946952572193 62.39651000189822,21.34739235575981 L62.39651000189822,21.34739235575981 L62.39651000189822,21.34739235575981 Q61.24219735679804,22.092885939053673 60.2802701525479,22.958620422878795 L60.2802701525479,22.958620422878795 L59.751210190210315,22.405512280434976 L59.751210190210315,22.405512280434976 Q60.881474655204244,21.299295995547297 62.32436546157946,20.313320611190903 L62.32436546157946,20.313320611190903 L62.32436546157946,20.313320611190903 Q63.743208087848416,19.327345226834495 65.33038797486117,18.605899823646894 L65.33038797486117,18.605899823646894 L65.33038797486117,18.605899823646894 Q66.9175678618739,17.884454420459278 68.5287959289929,17.451587178546703 L68.5287959289929,17.451587178546703 L68.5287959289929,17.451587178546703 Q70.14002399611189,17.01871993663414 71.65505934280588,17.01871993663414 L71.65505934280588,17.01871993663414 L71.65505934280588,17.01871993663414 Q73.07390196907484,17.01871993663414 74.32440733460004,17.523731718865477 L74.32440733460004,17.523731718865477 L74.32440733460004,17.523731718865477 Q75.55086452001898,18.0287435010968 76.46469536405661,18.918526165028183 L76.46469536405661,18.918526165028183 L76.46469536405661,18.918526165028183 Q77.37852620809424,19.83235700906583 77.90758617043183,21.082862374591016 L77.90758617043183,21.082862374591016 L77.90758617043183,21.082862374591016 Q78.43664613276943,22.333367740116202 78.43664613276943,23.82435490670393 zM65.06585799369238,21.78025959767237 L65.06585799369238,40.153069198850176 L61.675064598710605,41.40357456437536 L61.675064598710605,22.958620422878795 L65.06585799369238,21.78025959767237 zM90.50883254610875,38.4216002311999 L90.96574796812756,38.926612013431225 L90.96574796812756,38.926612013431225 Q90.77336252727753,39.359479255343786 90.46073618589622,39.74425013704385 L90.46073618589622,39.74425013704385 L90.46073618589622,39.74425013704385 Q90.17215802462118,40.10497283863765 89.78738714292112,40.417599180018954 L89.78738714292112,40.417599180018954 L89.78738714292112,40.417599180018954 Q89.40261626122108,40.706177341293994 88.94570083920226,40.87451460203778 L88.94570083920226,40.87451460203778 L88.94570083920226,40.87451460203778 Q88.48878541718344,41.04285186278156 88.00782181505836,41.04285186278156 L88.00782181505836,41.04285186278156 L88.00782181505836,41.04285186278156 Q86.70922008932067,41.04285186278156 86.13206376677059,40.34545463970019 L86.13206376677059,40.34545463970019 L86.13206376677059,40.34545463970019 Q85.57895562432674,39.62400923651256 85.57895562432674,38.39755205109364 L85.57895562432674,38.39755205109364 L85.57895562432674,38.084925709712365 L85.57895562432674,38.084925709712365 Q85.26632928294545,38.66208203226245 84.90560658135165,39.215190174706265 L84.90560658135165,39.215190174706265 L84.90560658135165,39.215190174706265 Q84.52083569965157,39.76829831715011 84.06392027763277,40.22521373916891 L84.06392027763277,40.22521373916891 L84.06392027763277,40.22521373916891 Q83.60700485561394,40.65808098108147 83.02984853306386,40.94665914235654 L83.02984853306386,40.94665914235654 L83.02984853306386,40.94665914235654 Q82.45269221051376,41.211189123525344 81.73124680732616,41.211189123525344 L81.73124680732616,41.211189123525344 L81.73124680732616,41.211189123525344 Q80.673126882651,41.211189123525344 79.85548875903837,40.80237006171902 L79.85548875903837,40.80237006171902 L79.85548875903837,40.80237006171902 Q79.01380245531949,40.39355099991269 78.46069431287566,39.69615377683135 L78.46069431287566,39.69615377683135 L78.46069431287566,39.69615377683135 Q77.90758617043183,38.998756553749985 77.61900800915679,38.0608775296061 L77.61900800915679,38.0608775296061 L77.61900800915679,38.0608775296061 Q77.354478027988,37.12299850546219 77.354478027988,36.06487858078705 L77.354478027988,36.06487858078705 L77.354478027988,36.06487858078705 Q77.354478027988,34.646035954518084 77.85948981021932,33.227193328249115 L77.85948981021932,33.227193328249115 L77.85948981021932,33.227193328249115 Q78.34045341234439,31.808350701980146 79.25428425638204,30.678086236986218 L79.25428425638204,30.678086236986218 L79.25428425638204,30.678086236986218 Q80.16811510041967,29.571869952098552 81.44266864605112,28.874472729017214 L81.44266864605112,28.874472729017214 L81.44266864605112,28.874472729017214 Q82.71722219168255,28.177075505935846 84.28035389858904,28.177075505935846 L84.28035389858904,28.177075505935846 L84.28035389858904,28.177075505935846 Q84.90560658135165,28.177075505935846 85.53085926411424,28.27326822636087 L85.53085926411424,28.27326822636087 L85.53085926411424,28.27326822636087 Q86.15611194687682,28.393509126892127 86.73326826942693,28.658039108060905 L86.73326826942693,28.658039108060905 L86.73326826942693,28.658039108060905 Q87.28637641187075,28.898520909123448 87.76734001399583,29.307339970929775 L87.76734001399583,29.307339970929775 L87.76734001399583,29.307339970929775 Q88.22425543601463,29.716159032736073 88.53688177739593,30.317363535392417 L88.53688177739593,30.317363535392417 L86.08396740655806,31.351435279961322 L86.08396740655806,31.351435279961322 Q85.89158196570804,31.03880893858002 85.62705198453925,30.750230777304978 L85.62705198453925,30.750230777304978 L85.62705198453925,30.750230777304978 Q85.36252200337046,30.461652616029937 85.07394384209542,30.245218995073657 L85.07394384209542,30.245218995073657 L85.07394384209542,30.245218995073657 Q84.76131750071411,30.028785374117376 84.42464297922658,29.90854447358612 L84.42464297922658,29.90854447358612 L84.42464297922658,29.90854447358612 Q84.06392027763277,29.788303573054833 83.70319757603897,29.788303573054833 L83.70319757603897,29.788303573054833 L83.70319757603897,29.788303573054833 Q82.83746309221382,29.788303573054833 82.16411404923872,30.293315355286154 L82.16411404923872,30.293315355286154 L82.16411404923872,30.293315355286154 Q81.51481318636988,30.822375317623738 81.03384958424482,31.591917081023865 L81.03384958424482,31.591917081023865 L81.03384958424482,31.591917081023865 Q80.57693416222598,32.38550702453023 80.31240418105719,33.25124150835535 L80.31240418105719,33.25124150835535 L80.31240418105719,33.25124150835535 Q80.07192237999467,34.1169759921805 80.07192237999467,34.81437321526184 L80.07192237999467,34.81437321526184 L80.07192237999467,34.81437321526184 Q80.07192237999467,35.439625898024445 80.19216328052593,36.23321584153081 L80.19216328052593,36.23321584153081 L80.19216328052593,36.23321584153081 Q80.31240418105719,37.002757604930935 80.6250305224385,37.7001548280123 L80.6250305224385,37.7001548280123 L80.6250305224385,37.7001548280123 Q80.93765686381978,38.39755205109364 81.46671682615738,38.87851565321873 L81.46671682615738,38.87851565321873 L81.46671682615738,38.87851565321873 Q81.97172860838869,39.33543107523752 82.7412703717888,39.33543107523752 L82.7412703717888,39.33543107523752 L82.7412703717888,39.33543107523752 Q83.34247487444514,39.33543107523752 83.79939029646397,39.070901094068745 L83.79939029646397,39.070901094068745 L83.79939029646397,39.070901094068745 Q84.23225753837654,38.80637111289997 84.54488387975783,38.373503870987406 L84.54488387975783,38.373503870987406 L84.54488387975783,38.373503870987406 Q84.85751022113914,37.940636629074845 85.07394384209542,37.363480306524735 L85.07394384209542,37.363480306524735 L85.07394384209542,37.363480306524735 Q85.26632928294545,36.786323983974654 85.3865701834767,36.20916766142457 L85.3865701834767,36.20916766142457 L85.3865701834767,36.20916766142457 Q85.48276290390172,35.60796315876823 85.53085926411424,35.03080683621815 L85.53085926411424,35.03080683621815 L85.53085926411424,35.03080683621815 Q85.57895562432674,34.45365051366804 85.57895562432674,33.996735091649214 L85.57895562432674,33.996735091649214 L85.57895562432674,32.84242244654905 L88.5609299575022,31.808350701980146 L88.5609299575022,38.4696965914124 L88.5609299575022,38.4696965914124 Q88.5609299575022,38.80637111289997 88.72926721824597,39.070901094068745 L88.72926721824597,39.070901094068745 L88.72926721824597,39.070901094068745 Q88.89760447898975,39.33543107523752 89.2342790004773,39.33543107523752 L89.2342790004773,39.33543107523752 L89.2342790004773,39.33543107523752 Q89.64309806228361,39.33543107523752 89.97977258377117,39.04685291396248 L89.97977258377117,39.04685291396248 L89.97977258377117,39.04685291396248 Q90.31644710525872,38.73422657258121 90.50883254610875,38.4216002311999 L90.50883254610875,38.4216002311999 zM99.06998466393506,41.18714094341908 L99.06998466393506,41.18714094341908 L99.06998466393506,41.18714094341908 Q98.49282834138495,41.18714094341908 97.96376837904738,41.0188036826753 L97.96376837904738,41.0188036826753 L97.96376837904738,41.0188036826753 Q97.43470841670981,40.87451460203778 96.97779299469099,40.51379190044398 L96.97779299469099,40.51379190044398 L98.25234654032242,38.66208203226245 L98.25234654032242,38.66208203226245 Q98.56497288170372,39.09494927417501 98.99784012361629,39.33543107523752 L98.99784012361629,39.33543107523752 L98.99784012361629,39.33543107523752 Q99.4066591854226,39.575912876300094 99.91167096765392,39.575912876300094 L99.91167096765392,39.575912876300094 L99.91167096765392,39.575912876300094 Q100.4407309299915,39.575912876300094 100.82550181169157,39.31138289513129 L100.82550181169157,39.31138289513129 L100.82550181169157,39.31138289513129 Q101.21027269339163,39.02280473385622 101.45075449445415,38.58993749194366 L101.45075449445415,38.58993749194366 L101.45075449445415,38.58993749194366 Q101.71528447562294,38.13302206992486 101.88362173636673,37.60396210758728 L101.88362173636673,37.60396210758728 L101.88362173636673,37.60396210758728 Q102.05195899711049,37.05085396514343 102.12410353742925,36.47369764259335 L102.12410353742925,36.47369764259335 L102.12410353742925,36.47369764259335 Q102.19624807774801,35.920589500149504 102.2443444379605,35.41557771791818 L102.2443444379605,35.41557771791818 L102.2443444379605,35.41557771791818 Q102.26839261806678,34.8865177555806 102.26839261806678,34.525795053986826 L102.26839261806678,34.525795053986826 L102.26839261806678,34.525795053986826 Q102.26839261806678,33.82839783090546 102.07600717721675,33.0348078873991 L102.07600717721675,33.0348078873991 L102.07600717721675,33.0348078873991 Q101.88362173636673,32.217169763786444 101.49885085466667,31.519772540705105 L101.49885085466667,31.519772540705105 L101.49885085466667,31.519772540705105 Q101.1140799729666,30.822375317623738 100.51287547031026,30.34141171549868 L100.51287547031026,30.34141171549868 L100.51287547031026,30.34141171549868 Q99.91167096765392,29.884496293479856 99.06998466393506,29.884496293479856 L99.06998466393506,29.884496293479856 L99.06998466393506,29.884496293479856 Q98.49282834138495,29.884496293479856 98.08400927957865,30.173074454754897 L98.08400927957865,30.173074454754897 L98.08400927957865,30.173074454754897 Q97.67519021777235,30.461652616029937 97.41066023660355,30.91856803804876 L97.41066023660355,30.91856803804876 L97.41066023660355,30.91856803804876 Q97.14613025543474,31.375483460067585 96.97779299469099,31.97668796272393 L96.97779299469099,31.97668796272393 L96.97779299469099,31.97668796272393 Q96.83350391405344,32.57789246538027 96.7613593737347,33.17909696803659 L96.7613593737347,33.17909696803659 L96.7613593737347,33.17909696803659 Q96.68921483341593,33.78030147069293 96.66516665330968,34.35745779324304 L96.66516665330968,34.35745779324304 L96.66516665330968,34.35745779324304 Q96.64111847320342,34.91056593568686 96.64111847320342,35.34343317759942 L96.64111847320342,35.34343317759942 L96.64111847320342,47.96872773338259 L93.65914414002798,49.0027994779515 L93.65914414002798,30.55784533645496 L93.65914414002798,30.55784533645496 Q93.65914414002798,30.221170814967422 93.49080687928421,29.956640833798616 L93.49080687928421,29.956640833798616 L93.49080687928421,29.956640833798616 Q93.32246961854042,29.668062672523547 92.98579509705287,29.668062672523547 L92.98579509705287,29.668062672523547 L92.98579509705287,29.668062672523547 Q92.57697603524656,29.668062672523547 92.24030151375901,29.98068901390485 L92.24030151375901,29.98068901390485 L92.24030151375901,29.98068901390485 Q91.90362699227146,30.293315355286154 91.71124155142144,30.581893516561195 L91.71124155142144,30.581893516561195 L91.25432612940261,30.076881734329874 L91.25432612940261,30.076881734329874 Q91.44671157025263,29.668062672523547 91.75933791163393,29.28329179082351 L91.75933791163393,29.28329179082351 L91.75933791163393,29.28329179082351 Q92.07196425301524,28.898520909123448 92.4567351347153,28.609942747848407 L92.4567351347153,28.609942747848407 L92.4567351347153,28.609942747848407 Q92.84150601641534,28.321364586573367 93.29842143843416,28.12897914572335 L93.29842143843416,28.12897914572335 L93.29842143843416,28.12897914572335 Q93.73128868034672,27.960641884979566 94.23630046257806,27.960641884979566 L94.23630046257806,27.960641884979566 L94.23630046257806,27.960641884979566 Q94.93369768565941,27.960641884979566 95.39061310767823,28.177075505935846 L95.39061310767823,28.177075505935846 L95.39061310767823,28.177075505935846 Q95.84752852969706,28.369460946785864 96.1361066909721,28.754231828485928 L96.1361066909721,28.754231828485928 L96.1361066909721,28.754231828485928 Q96.42468485224714,29.13900271018599 96.5449257527784,29.668062672523547 L96.5449257527784,29.668062672523547 L96.5449257527784,29.668062672523547 Q96.64111847320342,30.19712263486116 96.64111847320342,30.822375317623738 L96.64111847320342,30.822375317623738 L96.64111847320342,30.822375317623738 Q96.9056484543722,30.317363535392417 97.26637115596603,29.812351753161096 L97.26637115596603,29.812351753161096 L97.26637115596603,29.812351753161096 Q97.62709385755983,29.28329179082351 98.05996109947239,28.874472729017214 L98.05996109947239,28.874472729017214 L98.05996109947239,28.874472729017214 Q98.51687652149121,28.48970184731712 99.0459364838288,28.225171866148344 L99.0459364838288,28.225171866148344 L99.0459364838288,28.225171866148344 Q99.57499644616635,27.960641884979566 100.22429730903522,27.960641884979566 L100.22429730903522,27.960641884979566 L100.22429730903522,27.960641884979566 Q101.35456177402914,27.960641884979566 102.22029625785429,28.465653667210887 L102.22029625785429,28.465653667210887 L102.22029625785429,28.465653667210887 Q103.11007892178566,28.97066544944221 103.71128342444199,29.788303573054833 L103.71128342444199,29.788303573054833 L103.71128342444199,29.788303573054833 Q104.31248792709833,30.605941696667458 104.62511426847965,31.6159652611301 L104.62511426847965,31.6159652611301 L104.62511426847965,31.6159652611301 Q104.93774060986094,32.62598882559277 104.93774060986094,33.68410875026791 L104.93774060986094,33.68410875026791 L104.93774060986094,33.68410875026791 Q104.93774060986094,34.98271047600562 104.55296972816089,36.32940856195583 L104.55296972816089,36.32940856195583 L104.55296972816089,36.32940856195583 Q104.19224702656706,37.652058467799776 103.47080162337946,38.73422657258121 L103.47080162337946,38.73422657258121 L103.47080162337946,38.73422657258121 Q102.7253080400856,39.81639467736261 101.61909175519794,40.51379190044398 L101.61909175519794,40.51379190044398 L101.61909175519794,40.51379190044398 Q100.53692365041653,41.18714094341908 99.06998466393506,41.18714094341908 zM118.57305873010677,27.744208264023285 L118.57305873010677,39.55186469619383 L118.57305873010677,39.55186469619383 Q118.57305873010677,40.73022552140026 118.26043238872546,41.86048998639416 L118.26043238872546,41.86048998639416 L118.26043238872546,41.86048998639416 Q117.97185422745042,42.96670627128185 117.44279426511285,43.97672983574449 L117.44279426511285,43.97672983574449 L117.44279426511285,43.97672983574449 Q116.9377824828815,44.9627052201009 116.2163370796939,45.80439152381976 L116.2163370796939,45.80439152381976 L116.2163370796939,45.80439152381976 Q115.51893985661255,46.622029647432385 114.70130173299992,47.22323415008873 L114.70130173299992,47.22323415008873 L114.70130173299992,47.22323415008873 Q113.85961542928105,47.82443865274507 112.9457845852434,48.16111317423264 L112.9457845852434,48.16111317423264 L112.9457845852434,48.16111317423264 Q112.0079055610995,48.49778769572018 111.09407471706187,48.49778769572018 L111.09407471706187,48.49778769572018 L111.09407471706187,48.49778769572018 Q110.37262931387426,48.49778769572018 109.74737663111166,48.257305894657634 L109.74737663111166,48.257305894657634 L109.74737663111166,48.257305894657634 Q109.12212394834906,48.01682409359512 108.56901580590524,47.632053211895055 L108.56901580590524,47.632053211895055 L110.3966774939805,45.29937974158844 L110.3966774939805,45.29937974158844 Q110.6612074751493,45.491765182438485 110.94978563642435,45.708198803394765 L110.94978563642435,45.708198803394765 L110.94978563642435,45.708198803394765 Q111.26241197780564,45.924632424351046 111.5990864992932,46.09296968509483 L111.5990864992932,46.09296968509483 L111.5990864992932,46.09296968509483 Q111.9117128406745,46.261306945838584 112.2724355422683,46.38154784636987 L112.2724355422683,46.38154784636987 L112.2724355422683,46.38154784636987 Q112.63315824386211,46.477740566794864 112.96983276534966,46.477740566794864 L112.96983276534966,46.477740566794864 L112.96983276534966,46.477740566794864 Q113.59508544811226,46.477740566794864 114.02795269002482,46.09296968509483 L114.02795269002482,46.09296968509483 L114.02795269002482,46.09296968509483 Q114.4608199319374,45.732246983501 114.74939809321242,45.131042480844656 L114.74939809321242,45.131042480844656 L114.74939809321242,45.131042480844656 Q115.03797625448748,44.52983797818834 115.182265335125,43.784344394894475 L115.182265335125,43.784344394894475 L115.182265335125,43.784344394894475 Q115.35060259586876,43.03885081160061 115.42274713618752,42.293357228306746 L115.42274713618752,42.293357228306746 L115.42274713618752,42.293357228306746 Q115.4948916765063,41.571911825119116 115.51893985661255,40.89856278214404 L115.51893985661255,40.89856278214404 L115.51893985661255,40.89856278214404 Q115.5429880367188,40.22521373916891 115.5429880367188,39.79234649725635 L115.5429880367188,39.79234649725635 L115.5429880367188,33.17909696803659 L115.5429880367188,33.17909696803659 Q115.39869895608128,33.7562532905867 115.182265335125,34.57389141419932 L115.182265335125,34.57389141419932 L115.182265335125,34.57389141419932 Q114.98987989427496,35.39152953781195 114.65320537278741,36.28131220174333 L114.65320537278741,36.28131220174333 L114.65320537278741,36.28131220174333 Q114.34057903140611,37.17109486567472 113.9317599695998,38.0608775296061 L113.9317599695998,38.0608775296061 L113.9317599695998,38.0608775296061 Q113.5229409077935,38.926612013431225 112.99388094545591,39.648057416618826 L112.99388094545591,39.648057416618826 L112.99388094545591,39.648057416618826 Q112.48886916322459,40.34545463970019 111.83956830035575,40.778321881612754 L111.83956830035575,40.778321881612754 L111.83956830035575,40.778321881612754 Q111.21431561759314,41.211189123525344 110.46882203429927,41.211189123525344 L110.46882203429927,41.211189123525344 L110.46882203429927,41.211189123525344 Q109.7233284510054,41.211189123525344 109.33855756930535,40.87451460203778 L109.33855756930535,40.87451460203778 L109.33855756930535,40.87451460203778 Q108.9537866876053,40.53784008055021 108.76140124675528,40.03282829831889 L108.76140124675528,40.03282829831889 L108.76140124675528,40.03282829831889 Q108.59306398601149,39.503768335981306 108.59306398601149,38.87851565321873 L108.59306398601149,38.87851565321873 L108.59306398601149,38.87851565321873 Q108.56901580590524,38.25326297045612 108.56901580590524,37.67610664790604 L108.56901580590524,37.67610664790604 L108.56901580590524,30.581893516561195 L108.56901580590524,30.581893516561195 Q108.56901580590524,30.293315355286154 108.40067854516145,30.004737194011113 L108.40067854516145,30.004737194011113 L108.40067854516145,30.004737194011113 Q108.2323412844177,29.716159032736073 107.89566676293015,29.716159032736073 L107.89566676293015,29.716159032736073 L107.89566676293015,29.716159032736073 Q107.48684770112384,29.716159032736073 107.15017317963628,30.004737194011113 L107.15017317963628,30.004737194011113 L107.15017317963628,30.004737194011113 Q106.81349865814872,30.317363535392417 106.6211132172987,30.605941696667458 L106.6211132172987,30.605941696667458 L106.16419779527988,30.1249780945424 L106.16419779527988,30.1249780945424 Q106.35658323612992,29.716159032736073 106.6692095775112,29.33138815103601 L106.6692095775112,29.33138815103601 L106.6692095775112,29.33138815103601 Q106.9818359188925,28.946617269335945 107.36660680059255,28.63399092795467 L107.36660680059255,28.63399092795467 L107.36660680059255,28.63399092795467 Q107.75137768229261,28.3454127666796 108.20829310431144,28.177075505935846 L108.20829310431144,28.177075505935846 L108.20829310431144,28.177075505935846 Q108.641160346224,28.008738245192063 109.14617212845533,28.008738245192063 L109.14617212845533,28.008738245192063 L109.14617212845533,28.008738245192063 Q110.42072567408677,28.008738245192063 110.99788199663685,28.70613546827343 L110.99788199663685,28.70613546827343 L110.99788199663685,28.70613546827343 Q111.5509901390807,29.427580871461032 111.5509901390807,30.654038056879983 L111.5509901390807,30.654038056879983 L111.5509901390807,37.41157666673723 L111.5509901390807,37.41157666673723 Q111.5509901390807,37.507769387162284 111.57503831918694,37.67610664790604 L111.57503831918694,37.67610664790604 L111.57503831918694,37.67610664790604 Q111.57503831918694,37.82039572854356 111.62313467939946,37.96468480918108 L111.62313467939946,37.96468480918108 L111.62313467939946,37.96468480918108 Q111.67123103961195,38.1089738898186 111.76742376003699,38.229214790349886 L111.76742376003699,38.229214790349886 L111.76742376003699,38.229214790349886 Q111.86361648046199,38.32540751077488 112.03195374120577,38.32540751077488 L112.03195374120577,38.32540751077488 L112.03195374120577,38.32540751077488 Q112.34458008258706,38.32540751077488 112.68125460407461,37.96468480918108 L112.68125460407461,37.96468480918108 L112.68125460407461,37.96468480918108 Q112.99388094545591,37.60396210758728 113.30650728683722,37.12299850546219 L113.30650728683722,37.12299850546219 L113.30650728683722,37.12299850546219 Q113.59508544811226,36.642034903337134 113.81151906906854,36.16107130121205 L113.81151906906854,36.16107130121205 L113.81151906906854,36.16107130121205 Q114.02795269002482,35.70415587919325 114.12414541044984,35.46367407813071 L114.12414541044984,35.46367407813071 L114.12414541044984,35.46367407813071 Q114.41272357172487,34.76627685504934 114.65320537278741,33.92459055133048 L114.65320537278741,33.92459055133048 L114.65320537278741,33.92459055133048 Q114.86963899374369,33.082904247611594 115.06202443459372,32.19312158368021 L115.06202443459372,32.19312158368021 L115.06202443459372,32.19312158368021 Q115.2303616953375,31.32738709985506 115.35060259586876,30.461652616029937 L115.35060259586876,30.461652616029937 L115.35060259586876,30.461652616029937 Q115.47084349640002,29.595918132204815 115.5429880367188,28.802328188698425 L115.5429880367188,28.802328188698425 L118.57305873010677,27.744208264023285 zM130.78953422408364,38.66208203226245 L131.19835328588994,39.09494927417501 L131.19835328588994,39.09494927417501 Q130.88572694450863,39.55186469619383 130.45285970259607,39.93663557789387 L130.45285970259607,39.93663557789387 L130.45285970259607,39.93663557789387 Q130.04404064078977,40.297358279487696 129.51498067845216,40.561888260656474 L129.51498067845216,40.561888260656474 L129.51498067845216,40.561888260656474 Q129.00996889622084,40.82641824182525 128.45686075377702,40.97070732246277 L128.45686075377702,40.97070732246277 L128.45686075377702,40.97070732246277 Q127.90375261133318,41.11499640310032 127.35064446888934,41.11499640310032 L127.35064446888934,41.11499640310032 L127.35064446888934,41.11499640310032 Q126.62919906570174,41.11499640310032 126.12418728347042,40.850466421931515 L126.12418728347042,40.850466421931515 L126.12418728347042,40.850466421931515 Q125.59512732113285,40.58593644076274 125.2584527996453,40.12902101874391 L125.2584527996453,40.12902101874391 L125.2584527996453,40.12902101874391 Q124.94582645826397,39.69615377683135 124.77748919752021,39.09494927417501 L124.77748919752021,39.09494927417501 L124.77748919752021,39.09494927417501 Q124.63320011688269,38.493744771518664 124.63320011688269,37.86849208875606 L124.63320011688269,37.86849208875606 L124.63320011688269,37.86849208875606 Q124.63320011688269,37.0268057850372 124.8736819179452,36.06487858078705 L124.8736819179452,36.06487858078705 L124.8736819179452,36.06487858078705 Q125.138211899114,35.10295137653691 125.57107914102657,34.165072352393 L125.57107914102657,34.165072352393 L125.57107914102657,34.165072352393 Q126.00394638293913,33.227193328249115 126.55705452538297,32.43360338474275 L126.55705452538297,32.43360338474275 L126.55705452538297,32.43360338474275 Q127.13421084793308,31.6159652611301 127.75946353069565,31.086905298792544 L127.75946353069565,31.086905298792544 L127.75946353069565,31.086905298792544 Q127.18230720814557,31.47167618049258 126.4849099850642,31.688109801448892 L126.4849099850642,31.688109801448892 L126.4849099850642,31.688109801448892 Q125.8115609420891,31.90454342240517 125.11416371900776,31.90454342240517 L125.11416371900776,31.90454342240517 L125.11416371900776,31.90454342240517 Q124.5851037566702,31.90454342240517 124.22438105507636,31.808350701980146 L124.22438105507636,31.808350701980146 L124.22438105507636,31.808350701980146 Q123.83961017337631,31.736206161661386 123.3826947513575,31.495724360598842 L123.3826947513575,31.495724360598842 L121.67527396381348,35.078903196430645 L120.95382856062588,34.790325035155604 L122.73339388848864,31.159049839111304 L122.73339388848864,31.159049839111304 Q122.46886390731984,30.96666439826126 122.13218938583229,30.654038056879983 L122.13218938583229,30.654038056879983 L122.13218938583229,30.654038056879983 Q121.819563044451,30.34141171549868 121.67527396381348,30.05283355422364 L121.67527396381348,30.05283355422364 L123.95985107390759,27.47967828285448 L123.95985107390759,27.47967828285448 Q124.1041401545451,27.936593704873303 124.3686701357139,28.393509126892127 L124.3686701357139,28.393509126892127 L124.3686701357139,28.393509126892127 Q124.63320011688269,28.85042454891095 124.96987463837024,29.187099070398517 L124.96987463837024,29.187099070398517 L124.96987463837024,29.187099070398517 Q125.33059733996406,29.54782177199229 125.7634645818766,29.788303573054833 L125.7634645818766,29.788303573054833 L125.7634645818766,29.788303573054833 Q126.19633182378918,30.004737194011113 126.72539178612676,30.004737194011113 L126.72539178612676,30.004737194011113 L126.72539178612676,30.004737194011113 Q127.5911262699519,30.004737194011113 128.4087643935645,29.692110852629842 L128.4087643935645,29.692110852629842 L128.4087643935645,29.692110852629842 Q129.22640251717712,29.355436331142272 129.94784792036472,28.898520909123448 L129.94784792036472,28.898520909123448 L130.3807151622773,29.355436331142272 L130.3807151622773,29.355436331142272 Q129.7554624795147,29.932592653692353 129.13020979675213,30.62998987677372 L129.13020979675213,30.62998987677372 L129.13020979675213,30.62998987677372 Q128.48090893388326,31.32738709985506 127.97589715165195,32.12097704336145 L127.97589715165195,32.12097704336145 L127.97589715165195,32.12097704336145 Q127.47088536942063,32.89051880676158 127.15825902803931,33.78030147069293 L127.15825902803931,33.78030147069293 L127.15825902803931,33.78030147069293 Q126.84563268665802,34.646035954518084 126.84563268665802,35.53581861844947 L126.84563268665802,35.53581861844947 L126.84563268665802,35.53581861844947 Q126.84563268665802,36.04083040068079 126.98992176729556,36.66608308344337 L126.98992176729556,36.66608308344337 L126.98992176729556,36.66608308344337 Q127.13421084793308,37.31538394631224 127.4227890092081,37.86849208875606 L127.4227890092081,37.86849208875606 L127.4227890092081,37.86849208875606 Q127.71136717048316,38.44564841130614 128.16828259250195,38.8304192930062 L128.16828259250195,38.8304192930062 L128.16828259250195,38.8304192930062 Q128.60114983441457,39.215190174706265 129.22640251717712,39.215190174706265 L129.22640251717712,39.215190174706265 L129.22640251717712,39.215190174706265 Q129.6592697590897,39.215190174706265 130.06808882089604,39.04685291396248 L130.06808882089604,39.04685291396248 L130.06808882089604,39.04685291396248 Q130.45285970259607,38.90256383332496 130.78953422408364,38.66208203226245 L130.78953422408364,38.66208203226245 zM133.41078585566527,20.625946952572193 L136.8737237909658,19.447586127365767 L136.0079893071407,25.43558297382293 L134.39676124002168,25.940594756054253 L133.41078585566527,20.625946952572193 zM138.7013854790411,38.4696965914124 L139.13425272095364,38.97470837364375 L139.13425272095364,38.97470837364375 Q138.77353001935984,39.76829831715011 138.26851823712852,40.20116555906267 L138.26851823712852,40.20116555906267 L138.26851823712852,40.20116555906267 Q137.76350645489717,40.634032800975234 137.30659103287837,40.82641824182525 L137.30659103287837,40.82641824182525 L137.30659103287837,40.82641824182525 Q136.7534828904345,41.04285186278156 136.20037474799068,41.09094822299406 L136.20037474799068,41.09094822299406 L136.20037474799068,41.09094822299406 Q135.47892934480308,41.09094822299406 134.99796574267802,40.850466421931515 L134.99796574267802,40.850466421931515 L134.99796574267802,40.850466421931515 Q134.51700214055293,40.634032800975234 134.25247215938413,40.24926191927517 L134.25247215938413,40.24926191927517 L134.25247215938413,40.24926191927517 Q133.96389399810909,39.864491037575135 133.8677012776841,39.38352743545005 L133.8677012776841,39.38352743545005 L133.8677012776841,39.38352743545005 Q133.74746037715283,38.926612013431225 133.74746037715283,38.4216002311999 L133.74746037715283,38.4216002311999 L133.74746037715283,29.21114725050475 L136.77753107054076,28.177075505935846 L136.77753107054076,38.493744771518664 L136.77753107054076,38.493744771518664 Q136.77753107054076,38.90256383332496 136.94586833128457,39.11899745428127 L136.94586833128457,39.11899745428127 L136.94586833128457,39.11899745428127 Q137.1382537721346,39.359479255343786 137.42683193340963,39.359479255343786 L137.42683193340963,39.359479255343786 L137.42683193340963,39.359479255343786 Q137.71541009468467,39.38352743545005 138.05208461617227,39.16709381449377 L138.05208461617227,39.16709381449377 L138.05208461617227,39.16709381449377 Q138.38875913765978,38.95066019353749 138.7013854790411,38.4696965914124 L138.7013854790411,38.4696965914124 z" stroke-width="0" id="svg_1"/></g><g data-v-423bf9ae="" id="2dd407bf-11b2-408c-a4dc-68c794b419f9" stroke="none" fill="black" class=""><path d="M29.15422122690577,9.212135718393768 a22.107492829208812,22.107492829208812 0 0 0 -11.698694323765395,3.3313211379201273 l-0.3125627283595191,0.19420257754692608 c-6.3805314309422325,4.107556884268884 -10.193337065857365,11.091954909890992 -10.193337065857365,18.679644966354125 c0,9.21542941205603 5.546839300703844,17.33516558333703 14.131972181490763,20.686021891779657 l0.8009419914212962,0.3125627283595191 l-0.729696075398171,0.45505456040580206 a22.915329586696863,22.915329586696863 0 0 1 -9.784247612563282,3.342237850859158 a22.13794471267031,22.13794471267031 0 0 0 6.528194337538557,0.9750348346068409 c4.2776277805821525,0 8.428851516607159,-1.2180753384599314 12.005511413735956,-3.5215017685947774 l0.09825041645124462,-0.06320202227858912 l0.11721102313482779,-0.0051710745500740994 c11.911282944156955,-0.5004451036785733 21.242774251670042,-10.243324119841345 21.242774251670042,-22.180462436748638 c-0.0011491276777902187,-12.244529970716771 -9.96178783878219,-22.205743245660077 -22.20631780949895,-22.205743245660077 zM14.019060582702245,22.474792811634586 l0.6096122330688486,-0.6096122330688486 l4.981468483230001,4.980893919391086 l-4.981468483230001,4.982043047068918 l-0.6096122330688486,-0.6096122330688812 l4.3718562501611355,-4.372430814000036 l-4.3718562501611355,-4.371281686322238 zM14.323579417317234,36.84750724162288 h1.8345823375955346 v0.8618457583442896 h-1.8345823375955346 v-0.8618457583442896 zM19.981884102766927,40.91427009333012 h-5.6577301216108165 v-0.8618457583442896 h5.6577301216108165 v0.8618457583442896 zM19.981884102766927,34.503286778926395 h-5.6577301216108165 v-0.8618457583442896 h5.6577301216108165 v0.8618457583442896 zM21.83600161088495,37.709352999967166 h-1.4835238320299502 v-0.8618457583442896 h1.4835238320299502 v0.8618457583442896 zM38.41044467152343,24.036457325754455 h1.1008643153251036 v0.8618457583442896 h-1.1008643153251036 v-0.8618457583442896 zM38.41044467152343,28.794995039492733 h1.1008643153251036 v0.8618457583442896 h-1.1008643153251036 v-0.8618457583442896 zM28.78420211465662,24.036457325754455 h6.252978258707273 v0.8618457583442896 h-6.252978258707273 v-0.8618457583442896 zM37.17283416254103,26.415151618784677 v0.8618457583443059 h-6.251829131029475 v-0.8618457583443059 h6.251829131029475 zM26.446301854188,26.415151618784677 h1.1014388791640026 v0.8618457583443059 h-1.1014388791640026 v-0.8618457583443059 zM31.928215441096572,33.641441020582135 v0.8618457583442896 h-8.425404133573766 v-0.8618457583442896 h8.425404133573766 zM21.97217324070334,24.036457325754455 h4.1994870984922885 v0.8618457583442896 h-4.1994870984922885 v-0.8618457583442896 zM21.97217324070334,26.415151618784677 h1.3622908620228786 v0.8618457583443059 h-1.3622908620228786 v-0.8618457583443059 zM21.97217324070334,28.794995039492733 h4.1994870984922885 v0.8618457583442896 h-4.1994870984922885 v-0.8618457583442896 zM27.811465535405357,40.91427009333012 h-4.308654227882548 v-0.8618457583442896 h4.308654227882548 v0.8618457583442896 zM34.80563114628872,37.709352999967166 h-8.424255005895967 v-0.8618457583442896 h8.424255005895967 v0.8618457583442896 zM35.03718037336389,29.65684079783702 h-6.252978258707273 v-0.8618457583442896 h6.252978258707273 v0.8618457583442896 zM37.95653923879544,40.91427009333012 h-1.4835238320299664 v-0.8618457583442896 h1.4835238320299664 v0.8618457583442896 zM37.95653923879544,34.503286778926395 h-1.4835238320299664 v-0.8618457583442896 h1.4835238320299664 v0.8618457583442896 zM43.985437600333185,40.91427009333012 h-1.8345823375955426 v-0.8618457583442896 h1.8340077737566518 v0.8618457583442896 zM43.985437600333185,37.709352999967166 h-5.657155557771917 v-0.8618457583442896 h5.657155557771917 v0.8618457583442896 zM43.985437600333185,34.503286778926395 h-1.8345823375955426 v-0.8618457583442896 h1.8340077737566518 v0.8618457583442896 zM43.985437600333185,29.65684079783702 h-1.3611417343450811 v-0.8618457583442896 h1.3611417343450811 v0.8618457583442896 zM43.985437600333185,27.27699737712898 h-4.198912534653373 v-0.8618457583442896 h4.198912534653365 v0.8618457583442896 zM43.985437600333185,24.898303084098742 h-1.3611417343450811 v-0.8618457583442896 h1.3611417343450811 v0.8618457583442896 z" stroke-width="0" id="svg_2"/></g><g data-v-423bf9ae="" id="39009667-87a1-42be-a337-49b1348f9a75" fill="black" class=""/></g></svg>